<svg width="25" height="25" viewBox="0 0 25 25" fill="none" xmlns="http://www.w3.org/2000/svg">
<path d="M20.7642 11.8349C20.5274 11.8349 20.3003 11.7408 20.1329 11.5734C19.9654 11.4059 19.8713 11.1788 19.8713 10.942V8.42059C19.8713 4.84916 16.5713 1.99202 12.5142 1.99202C8.45705 1.99202 5.15705 4.88488 5.15705 8.42059V10.942C5.15705 11.1788 5.06298 11.4059 4.89554 11.5734C4.7281 11.7408 4.501 11.8349 4.2642 11.8349C4.02739 11.8349 3.80029 11.7408 3.63285 11.5734C3.46541 11.4059 3.37134 11.1788 3.37134 10.942V8.42059C3.37134 3.87773 7.47848 0.177734 12.5142 0.177734C17.5499 0.177734 21.6571 3.87773 21.6571 8.42059V10.942C21.658 11.0595 21.6356 11.1761 21.591 11.2848C21.5465 11.3936 21.4808 11.4924 21.3977 11.5755C21.3146 11.6586 21.2158 11.7243 21.107 11.7689C20.9982 11.8134 20.8817 11.8358 20.7642 11.8349Z" fill="white"/>
<path d="M18.3499 20.2357C18.1131 20.2357 17.886 20.1416 17.7186 19.9742C17.5511 19.8068 17.4571 19.5797 17.4571 19.3429V10.8643C17.4645 10.6325 17.5618 10.4126 17.7285 10.2513C17.8951 10.09 18.118 9.99988 18.3499 10C21.4285 10 23.9356 12.3071 23.9356 15.1357C23.9356 17.9643 21.4285 20.2357 18.3499 20.2357ZM19.2428 11.85V18.3571C20.0245 18.2277 20.7384 17.8348 21.2659 17.2436C21.7935 16.6524 22.1029 15.8985 22.1428 15.1071C22.1045 14.3145 21.7958 13.559 21.2681 12.9663C20.7404 12.3737 20.0256 11.9797 19.2428 11.85ZM6.64992 20.2357C3.57135 20.2357 1.06421 17.9357 1.06421 15.1071C1.06421 12.2786 3.57135 10 6.64992 10C6.88672 10 7.11383 10.0941 7.28127 10.2615C7.44871 10.429 7.54278 10.6561 7.54278 10.8929V19.3429C7.54278 19.5797 7.44871 19.8068 7.28127 19.9742C7.11383 20.1416 6.88672 20.2357 6.64992 20.2357ZM5.75707 11.85C4.97421 11.9797 4.25942 12.3737 3.73175 12.9663C3.20408 13.559 2.89538 14.3145 2.85707 15.1071C2.89697 15.8985 3.20638 16.6524 3.73391 17.2436C4.26145 17.8348 4.97536 18.2277 5.75707 18.3571V11.85Z" fill="white"/>
<path d="M18.057 23.1424H15.0999C14.8631 23.1424 14.636 23.0483 14.4685 22.8809C14.3011 22.7135 14.207 22.4864 14.207 22.2496C14.207 22.0128 14.3011 21.7857 14.4685 21.6182C14.636 21.4508 14.8631 21.3567 15.0999 21.3567H18.057C18.5193 21.3567 18.9626 21.1731 19.2894 20.8462C19.6163 20.5194 19.7999 20.0761 19.7999 19.6138V19.221C19.7999 18.9842 19.894 18.7571 20.0614 18.5896C20.2288 18.4222 20.4559 18.3281 20.6927 18.3281C20.9295 18.3281 21.1566 18.4222 21.3241 18.5896C21.4915 18.7571 21.5856 18.9842 21.5856 19.221V19.6138C21.5856 20.5497 21.2138 21.4472 20.5521 22.1089C19.8904 22.7707 18.9929 23.1424 18.057 23.1424Z" fill="white"/>
<path d="M13.5714 24.8223H11.8071C11.1592 24.8223 10.5379 24.5649 10.0798 24.1068C9.62163 23.6487 9.36426 23.0273 9.36426 22.3795V22.2795C9.36615 21.6328 9.62436 21.0133 10.0823 20.5567C10.5402 20.1001 11.1605 19.8437 11.8071 19.8438H13.5714C14.2174 19.8438 14.8369 20.1004 15.2937 20.5572C15.7505 21.0139 16.0071 21.6335 16.0071 22.2795V22.3795C16.0071 23.0261 15.7507 23.6464 15.2941 24.1043C14.8376 24.5622 14.218 24.8204 13.5714 24.8223ZM11.8214 21.6295C11.6483 21.6295 11.4823 21.6977 11.3592 21.8194C11.2362 21.9411 11.1661 22.1064 11.1643 22.2795V22.3795C11.1643 22.5537 11.2335 22.7209 11.3567 22.8441C11.48 22.9674 11.6471 23.0366 11.8214 23.0366H13.5714C13.7444 23.0347 13.9098 22.9647 14.0315 22.8416C14.1532 22.7186 14.2214 22.5525 14.2214 22.3795V22.2795C14.2214 22.1071 14.1529 21.9417 14.031 21.8198C13.9091 21.6979 13.7438 21.6295 13.5714 21.6295H11.8214Z" fill="white"/>
</svg>
