<svg width="25" height="25" viewBox="0 0 25 25" fill="none" xmlns="http://www.w3.org/2000/svg">
<path d="M13.675 25H11.3125C10.7555 25 10.2214 24.7787 9.82757 24.3849C9.43375 23.9911 9.2125 23.457 9.2125 22.9V21.5375C9.20573 21.4572 9.17628 21.3805 9.1276 21.3163C9.07891 21.2522 9.01298 21.2031 8.9375 21.175C8.86102 21.126 8.77208 21.0999 8.68125 21.0999C8.59041 21.0999 8.50148 21.126 8.425 21.175L7.5 22.175C7.30597 22.3704 7.0752 22.5255 6.82098 22.6313C6.56676 22.7371 6.29412 22.7916 6.01875 22.7916C5.74338 22.7916 5.47074 22.7371 5.21652 22.6313C4.9623 22.5255 4.73153 22.3704 4.5375 22.175L2.825 20.5C2.62677 20.3064 2.46934 20.075 2.362 19.8195C2.25466 19.564 2.19957 19.2896 2.2 19.0125C2.2008 18.4457 2.42543 17.9021 2.825 17.5L3.75 16.575C3.79466 16.5061 3.81842 16.4258 3.81842 16.3437C3.81842 16.2617 3.79466 16.1814 3.75 16.1125C3.675 15.925 3.55 15.7875 3.375 15.7875H2.1C1.5419 15.7842 1.00778 15.5602 0.614311 15.1644C0.22084 14.7685 -9.77027e-06 14.2331 3.24181e-10 13.675V11.3125C3.2418e-10 10.7555 0.221249 10.2214 0.615076 9.82757C1.0089 9.43375 1.54305 9.2125 2.1 9.2125H3.4625C3.54277 9.20573 3.61947 9.17628 3.68365 9.1276C3.74783 9.07891 3.79685 9.01298 3.825 8.9375C3.874 8.86102 3.90005 8.77208 3.90005 8.68125C3.90005 8.59041 3.874 8.50148 3.825 8.425L2.825 7.5C2.62961 7.30597 2.47453 7.0752 2.36871 6.82098C2.26288 6.56676 2.2084 6.29412 2.2084 6.01875C2.2084 5.74338 2.26288 5.47074 2.36871 5.21652C2.47453 4.9623 2.62961 4.73153 2.825 4.5375L4.5 2.825C4.69175 2.62771 4.92103 2.47078 5.17434 2.36345C5.42765 2.25611 5.69988 2.20054 5.975 2.2C6.25781 2.19876 6.53808 2.25332 6.79976 2.36057C7.06145 2.46782 7.2994 2.62564 7.5 2.825L8.425 3.75C8.49386 3.79466 8.57418 3.81842 8.65625 3.81842C8.73832 3.81842 8.81864 3.79466 8.8875 3.75C9.075 3.675 9.2125 3.55 9.2125 3.375V2.1C9.2158 1.5419 9.43983 1.00778 9.83564 0.614311C10.2315 0.22084 10.7669 -9.77027e-06 11.325 3.24181e-10H13.75C14.307 3.24181e-10 14.8411 0.221249 15.2349 0.615076C15.6287 1.0089 15.85 1.54305 15.85 2.1V3.4625C15.8568 3.54277 15.8862 3.61947 15.9349 3.68365C15.9836 3.74783 16.0495 3.79685 16.125 3.825C16.2015 3.874 16.2904 3.90005 16.3812 3.90005C16.4721 3.90005 16.561 3.874 16.6375 3.825L17.5 2.825C17.694 2.62961 17.9248 2.47453 18.179 2.36871C18.4332 2.26288 18.7059 2.2084 18.9812 2.2084C19.2566 2.2084 19.5293 2.26288 19.7835 2.36871C20.0377 2.47453 20.2685 2.62961 20.4625 2.825L22.175 4.5C22.3727 4.69407 22.5297 4.92554 22.637 5.18092C22.7443 5.43631 22.7997 5.71049 22.8 5.9875C22.806 6.26912 22.7536 6.54893 22.646 6.80926C22.5385 7.06959 22.3781 7.30479 22.175 7.5L21.25 8.425C21.2053 8.49386 21.1816 8.57418 21.1816 8.65625C21.1816 8.73832 21.2053 8.81864 21.25 8.8875C21.325 9.075 21.45 9.2125 21.625 9.2125H22.9875C23.5303 9.23822 24.0422 9.47209 24.417 9.86551C24.7918 10.2589 25.0006 10.7816 25 11.325V13.75C25 14.307 24.7787 14.8411 24.3849 15.2349C23.9911 15.6287 23.457 15.85 22.9 15.85H21.5375C21.4572 15.8568 21.3805 15.8862 21.3163 15.9349C21.2522 15.9836 21.2031 16.0495 21.175 16.125C21.1303 16.1939 21.1066 16.2742 21.1066 16.3562C21.1066 16.4383 21.1303 16.5186 21.175 16.5875L22.1375 17.55C22.3329 17.744 22.488 17.9748 22.5938 18.229C22.6996 18.4832 22.7541 18.7559 22.7541 19.0312C22.7541 19.3066 22.6996 19.5793 22.5938 19.8335C22.488 20.0877 22.3329 20.3185 22.1375 20.5125L20.5 22.175C20.3083 22.3723 20.079 22.5292 19.8257 22.6366C19.5723 22.7439 19.3001 22.7995 19.025 22.8C18.4668 22.7927 17.9334 22.5685 17.5375 22.175L16.575 21.25C16.5061 21.2053 16.4258 21.1816 16.3437 21.1816C16.2617 21.1816 16.1814 21.2053 16.1125 21.25C15.925 21.325 15.7875 21.45 15.7875 21.625V22.9875C15.7618 23.5303 15.5279 24.0422 15.1345 24.417C14.7411 24.7918 14.2184 25.0006 13.675 25ZM11.7125 22.5H13.2875V21.5375C13.2928 20.9611 13.4691 20.3992 13.794 19.923C14.1188 19.4468 14.5777 19.0777 15.1125 18.8625C15.6495 18.6278 16.2442 18.5583 16.8208 18.6629C17.3974 18.7676 17.9297 19.0416 18.35 19.45L19.025 20.125L20.125 19.025L19.45 18.3375C19.0442 17.9236 18.7705 17.3984 18.6636 16.8287C18.5568 16.2589 18.6217 15.6703 18.85 15.1375C19.0672 14.6051 19.4371 14.1488 19.9131 13.8263C20.3891 13.5037 20.95 13.3293 21.525 13.325H22.5V11.7125H21.5375C20.9611 11.7072 20.3992 11.5309 19.923 11.206C19.4468 10.8812 19.0777 10.4223 18.8625 9.8875C18.6278 9.35054 18.5583 8.75583 18.6629 8.17923C18.7676 7.60263 19.0416 7.07025 19.45 6.65L20.125 5.975L19.025 4.875L18.3375 5.55C17.9172 5.93395 17.3959 6.18981 16.835 6.28744C16.2741 6.38507 15.697 6.32041 15.1717 6.10107C14.6463 5.88174 14.1946 5.51686 13.8696 5.0494C13.5447 4.58193 13.36 4.03136 13.3375 3.4625V2.5H11.7125V3.4625C11.7072 4.03893 11.5309 4.60082 11.206 5.07701C10.8812 5.55321 10.4223 5.92228 9.8875 6.1375C9.35054 6.37221 8.75583 6.44168 8.17923 6.33705C7.60263 6.23241 7.07025 5.95842 6.65 5.55L5.975 4.875L4.875 5.975L5.55 6.6625C5.93395 7.08284 6.18981 7.60414 6.28744 8.16502C6.38507 8.72589 6.32041 9.30298 6.10107 9.82834C5.88174 10.3537 5.51686 10.8054 5.0494 11.1304C4.58193 11.4553 4.03136 11.64 3.4625 11.6625H2.5V13.2375H3.4625C4.03893 13.2428 4.60082 13.4191 5.07701 13.744C5.55321 14.0688 5.92228 14.5277 6.1375 15.0625C6.37221 15.5995 6.44168 16.1942 6.33705 16.7708C6.23241 17.3474 5.95842 17.8797 5.55 18.3L4.875 18.975L5.975 20.075L6.6625 19.4C7.08284 19.016 7.60414 18.7602 8.16502 18.6626C8.72589 18.5649 9.30298 18.6296 9.82834 18.8489C10.3537 19.0683 10.8054 19.4331 11.1304 19.9006C11.4553 20.3681 11.64 20.9186 11.6625 21.4875L11.7125 22.5Z" fill="white"/>
<path d="M12.5 16.875C11.6347 16.875 10.7888 16.6184 10.0694 16.1377C9.34992 15.657 8.78916 14.9737 8.45803 14.1742C8.1269 13.3748 8.04026 12.4951 8.20907 11.6465C8.37788 10.7978 8.79456 10.0183 9.40641 9.40641C10.0183 8.79456 10.7978 8.37788 11.6465 8.20907C12.4951 8.04026 13.3748 8.1269 14.1742 8.45803C14.9737 8.78916 15.657 9.34992 16.1377 10.0694C16.6184 10.7888 16.875 11.6347 16.875 12.5C16.875 13.6603 16.4141 14.7731 15.5936 15.5936C14.7731 16.4141 13.6603 16.875 12.5 16.875ZM12.5 10.625C12.1292 10.625 11.7667 10.735 11.4583 10.941C11.15 11.147 10.9096 11.4399 10.7677 11.7825C10.6258 12.1251 10.5887 12.5021 10.661 12.8658C10.7334 13.2295 10.912 13.5636 11.1742 13.8258C11.4364 14.0881 11.7705 14.2666 12.1342 14.339C12.4979 14.4113 12.8749 14.3742 13.2175 14.2323C13.5601 14.0904 13.853 13.85 14.059 13.5417C14.265 13.2334 14.375 12.8708 14.375 12.5C14.375 12.0027 14.1775 11.5258 13.8258 11.1742C13.4742 10.8225 12.9973 10.625 12.5 10.625Z" fill="white"/>
</svg>
