<svg width="25" height="25" viewBox="0 0 25 25" fill="none" xmlns="http://www.w3.org/2000/svg">
<path d="M20.7643 11.8349C20.5275 11.8349 20.3004 11.7408 20.1329 11.5734C19.9655 11.4059 19.8714 11.1788 19.8714 10.942V8.42059C19.8714 4.84916 16.5714 1.99202 12.5143 1.99202C8.45714 1.99202 5.15714 4.88488 5.15714 8.42059V10.942C5.15714 11.1788 5.06308 11.4059 4.89563 11.5734C4.72819 11.7408 4.50109 11.8349 4.26429 11.8349C4.02749 11.8349 3.80038 11.7408 3.63294 11.5734C3.4655 11.4059 3.37143 11.1788 3.37143 10.942V8.42059C3.37143 3.87773 7.47857 0.177734 12.5143 0.177734C17.55 0.177734 21.6571 3.87773 21.6571 8.42059V10.942C21.6581 11.0595 21.6357 11.1761 21.5911 11.2848C21.5466 11.3936 21.4809 11.4924 21.3978 11.5755C21.3147 11.6586 21.2158 11.7243 21.1071 11.7689C20.9983 11.8134 20.8818 11.8358 20.7643 11.8349Z" fill="white" fill-opacity="0.5"/>
<path d="M18.35 20.2357C18.1132 20.2357 17.8861 20.1416 17.7187 19.9742C17.5512 19.8068 17.4571 19.5797 17.4571 19.3429V10.8643C17.4646 10.6325 17.5619 10.4126 17.7285 10.2513C17.8952 10.09 18.1181 9.99988 18.35 10C21.4286 10 23.9357 12.3071 23.9357 15.1357C23.9357 17.9643 21.4286 20.2357 18.35 20.2357ZM19.2429 11.85V18.3571C20.0246 18.2277 20.7385 17.8348 21.266 17.2436C21.7935 16.6524 22.103 15.8985 22.1429 15.1071C22.1045 14.3145 21.7958 13.559 21.2682 12.9663C20.7405 12.3737 20.0257 11.9797 19.2429 11.85ZM6.65 20.2357C3.57143 20.2357 1.06429 17.9357 1.06429 15.1071C1.06429 12.2786 3.57143 10 6.65 10C6.8868 10 7.1139 10.0941 7.28134 10.2615C7.44879 10.429 7.54286 10.6561 7.54286 10.8929V19.3429C7.54286 19.5797 7.44879 19.8068 7.28134 19.9742C7.1139 20.1416 6.8868 20.2357 6.65 20.2357ZM5.75714 11.85C4.97429 11.9797 4.2595 12.3737 3.73183 12.9663C3.20416 13.559 2.89545 14.3145 2.85714 15.1071C2.89704 15.8985 3.20645 16.6524 3.73399 17.2436C4.26153 17.8348 4.97544 18.2277 5.75714 18.3571V11.85Z" fill="white" fill-opacity="0.5"/>
<path d="M18.0571 23.1424H15.1C14.8632 23.1424 14.6361 23.0483 14.4687 22.8809C14.3012 22.7135 14.2071 22.4864 14.2071 22.2496C14.2071 22.0128 14.3012 21.7857 14.4687 21.6182C14.6361 21.4508 14.8632 21.3567 15.1 21.3567H18.0571C18.5194 21.3567 18.9627 21.1731 19.2895 20.8462C19.6164 20.5194 19.8 20.0761 19.8 19.6138V19.221C19.8 18.9842 19.8941 18.7571 20.0615 18.5896C20.229 18.4222 20.4561 18.3281 20.6929 18.3281C20.9297 18.3281 21.1568 18.4222 21.3242 18.5896C21.4916 18.7571 21.5857 18.9842 21.5857 19.221V19.6138C21.5857 20.5497 21.214 21.4472 20.5522 22.1089C19.8905 22.7707 18.993 23.1424 18.0571 23.1424Z" fill="white" fill-opacity="0.5"/>
<path d="M13.5714 24.8223H11.8071C11.1593 24.8223 10.5379 24.5649 10.0798 24.1068C9.62166 23.6487 9.36429 23.0273 9.36429 22.3795V22.2795C9.36618 21.6328 9.62439 21.0133 10.0823 20.5567C10.5402 20.1001 11.1605 19.8437 11.8071 19.8438H13.5714C14.2174 19.8438 14.837 20.1004 15.2937 20.5572C15.7505 21.0139 16.0071 21.6335 16.0071 22.2795V22.3795C16.0071 23.0261 15.7508 23.6464 15.2942 24.1043C14.8376 24.5622 14.2181 24.8204 13.5714 24.8223ZM11.8214 21.6295C11.6484 21.6295 11.4823 21.6977 11.3593 21.8194C11.2362 21.9411 11.1662 22.1064 11.1643 22.2795V22.3795C11.1643 22.5537 11.2335 22.7209 11.3568 22.8441C11.48 22.9674 11.6471 23.0366 11.8214 23.0366H13.5714C13.7445 23.0347 13.9098 22.9647 14.0315 22.8416C14.1532 22.7186 14.2214 22.5525 14.2214 22.3795V22.2795C14.2214 22.1071 14.1529 21.9417 14.0311 21.8198C13.9092 21.6979 13.7438 21.6295 13.5714 21.6295H11.8214Z" fill="white" fill-opacity="0.5"/>
</svg>
