<svg width="12" height="9" viewBox="0 0 12 9" fill="none" xmlns="http://www.w3.org/2000/svg">
<path d="M5.83205 2.82869C5.4096 2.82869 5.00446 2.9965 4.70575 3.29521C4.40704 3.59392 4.23922 3.99906 4.23922 4.42151C4.23922 4.84395 4.40704 5.24909 4.70575 5.5478C5.00446 5.84651 5.4096 6.01433 5.83205 6.01433C6.25449 6.01433 6.65963 5.84651 6.95834 5.5478C7.25705 5.24909 7.42487 4.84395 7.42487 4.42151C7.42487 3.99906 7.25705 3.59392 6.95834 3.29521C6.65963 2.9965 6.25449 2.82869 5.83205 2.82869ZM5.83205 7.07621C5.12797 7.07621 4.45274 6.79652 3.95489 6.29867C3.45703 5.80081 3.17734 5.12558 3.17734 4.42151C3.17734 3.71744 3.45703 3.0422 3.95489 2.54435C4.45274 2.0465 5.12797 1.7668 5.83205 1.7668C6.53612 1.7668 7.21135 2.0465 7.7092 2.54435C8.20706 3.0422 8.48675 3.71744 8.48675 4.42151C8.48675 5.12558 8.20706 5.80081 7.7092 6.29867C7.21135 6.79652 6.53612 7.07621 5.83205 7.07621ZM5.83205 0.439453C3.17734 0.439453 0.910226 2.09068 -0.00830078 4.42151C0.910226 6.75234 3.17734 8.40356 5.83205 8.40356C8.48675 8.40356 10.7539 6.75234 11.6724 4.42151C10.7539 2.09068 8.48675 0.439453 5.83205 0.439453Z" fill="#0B19B7"/>
</svg>
