<svg width="27" height="23" viewBox="0 0 27 23" fill="none" xmlns="http://www.w3.org/2000/svg">
<path fill-rule="evenodd" clip-rule="evenodd" d="M8.88933 9.40046H3.82502C3.08192 9.39568 2.36681 9.62249 1.83702 10.031C1.30722 10.4395 1.00613 10.9962 1 11.5787V19.8226C1.01375 21.0352 2.27829 22.0097 3.82502 21.9994H8.88933C9.63237 22.0043 10.3476 21.7776 10.8774 21.3691C11.4072 20.9606 11.7083 20.4038 11.7143 19.8212V11.5787C11.7083 10.9962 11.4072 10.4395 10.8774 10.031C10.3476 9.62249 9.63237 9.39568 8.88933 9.40046Z" stroke="white" stroke-width="2" stroke-linecap="round" stroke-linejoin="round"/>
<path fill-rule="evenodd" clip-rule="evenodd" d="M8.88933 1.00085H3.82502C2.3094 0.967892 1.0457 1.90282 1 3.09087V4.51036C1.0457 5.69843 2.3094 6.63336 3.82502 6.60039H8.88933C10.4049 6.63336 11.6686 5.69843 11.7143 4.51036V3.09087C11.6686 1.90282 10.4049 0.967892 8.88933 1.00085Z" stroke="white" stroke-width="2" stroke-linecap="round" stroke-linejoin="round"/>
<path fill-rule="evenodd" clip-rule="evenodd" d="M18.1108 13.6011H23.1733C23.9167 13.6062 24.6322 13.3796 25.1624 12.9711C25.6926 12.5625 25.994 12.0056 26.0001 11.4228V3.18025C25.994 2.59773 25.693 2.04097 25.1631 1.63247C24.6333 1.22397 23.9181 0.997186 23.1751 1.00203H18.1108C17.3677 0.997186 16.6525 1.22397 16.1227 1.63247C15.5929 2.04097 15.2918 2.59773 15.2858 3.18025V11.4228C15.2918 12.0053 15.5929 12.5621 16.1227 12.9705C16.6525 13.379 17.3677 13.6058 18.1108 13.6011Z" stroke="white" stroke-width="2" stroke-linecap="round" stroke-linejoin="round"/>
<path fill-rule="evenodd" clip-rule="evenodd" d="M18.1108 21.9988H23.1733C24.6896 22.0326 25.9544 21.0974 26.0001 19.9088V18.4893C25.9544 17.3012 24.6906 16.3664 23.1751 16.3993H18.1108C16.5952 16.3664 15.3315 17.3012 15.2858 18.4893V19.9074C15.3304 21.096 16.5945 22.0317 18.1108 21.9988Z" stroke="white" stroke-width="2" stroke-linecap="round" stroke-linejoin="round"/>
</svg>
