<svg width="10" height="9" viewBox="0 0 10 9" fill="none" xmlns="http://www.w3.org/2000/svg">
<path d="M0.910692 8.18317C0.666459 8.18317 0.462578 8.1014 0.299048 7.93787C0.135165 7.77399 0.0532227 7.56993 0.0532227 7.3257V1.60747C0.0532227 1.36324 0.135165 1.15936 0.299048 0.995825C0.462578 0.831942 0.666459 0.75 0.910692 0.75H8.75268C8.99692 0.75 9.2008 0.831942 9.36433 0.995825C9.52821 1.15936 9.61015 1.36324 9.61015 1.60747V7.3257C9.61015 7.56993 9.52839 7.77381 9.36486 7.93734C9.20098 8.10123 8.99692 8.18317 8.75268 8.18317H0.910692ZM4.83169 4.52764L9.07921 1.75082L8.91568 1.28094L4.83169 3.93564L0.747693 1.28094L0.584163 1.75082L4.83169 4.52764Z" fill="#0B19B7"/>
</svg>
