<svg width="25" height="25" viewBox="0 0 25 25" fill="none" xmlns="http://www.w3.org/2000/svg">
<path d="M13.1146 13.5424L10.7187 15.9278C10.6211 16.0247 10.5436 16.1399 10.4907 16.2668C10.4378 16.3938 10.4106 16.5299 10.4106 16.6674C10.4106 16.8049 10.4378 16.9411 10.4907 17.068C10.5436 17.195 10.6211 17.3102 10.7187 17.407C10.8156 17.5046 10.9308 17.5821 11.0577 17.635C11.1847 17.6879 11.3208 17.7151 11.4583 17.7151C11.5958 17.7151 11.732 17.6879 11.8589 17.635C11.9859 17.5821 12.1011 17.5046 12.1979 17.407L16.3646 13.2403C16.4594 13.1413 16.5338 13.0245 16.5833 12.8966C16.6875 12.643 16.6875 12.3585 16.5833 12.1049C16.5338 11.9771 16.4594 11.8602 16.3646 11.7612L12.1979 7.5945C12.1008 7.49738 11.9855 7.42034 11.8586 7.36778C11.7317 7.31521 11.5957 7.28816 11.4583 7.28816C11.321 7.28816 11.185 7.31521 11.0581 7.36778C10.9312 7.42034 10.8159 7.49738 10.7187 7.5945C10.6216 7.69163 10.5446 7.80693 10.492 7.93383C10.4395 8.06073 10.4124 8.19673 10.4124 8.33409C10.4124 8.47144 10.4395 8.60745 10.492 8.73435C10.5446 8.86125 10.6216 8.97655 10.7187 9.07367L13.1146 11.4591H3.12499C2.84873 11.4591 2.58378 11.5688 2.38843 11.7642C2.19307 11.9595 2.08333 12.2245 2.08333 12.5008C2.08333 12.777 2.19307 13.042 2.38843 13.2373C2.58378 13.4327 2.84873 13.5424 3.12499 13.5424H13.1146ZM12.5 2.08409C10.5532 2.0754 8.64296 2.61243 6.9859 3.63429C5.32884 4.65614 3.9913 6.12191 3.12499 7.86534C3.00067 8.11398 2.98022 8.40182 3.06813 8.66554C3.15603 8.92927 3.3451 9.14727 3.59374 9.27159C3.84239 9.39591 4.13023 9.41637 4.39395 9.32846C4.65767 9.24055 4.87567 9.05148 4.99999 8.80284C5.65853 7.47296 6.66024 6.34307 7.90161 5.52991C9.14298 4.71675 10.579 4.24984 12.0612 4.17741C13.5434 4.10499 15.0181 4.42969 16.3328 5.11795C17.6476 5.80622 18.7547 6.83308 19.5397 8.09242C20.3247 9.35176 20.7592 10.7979 20.7983 12.2814C20.8374 13.7648 20.4796 15.2318 19.762 16.5308C19.0443 17.8297 17.9928 18.9134 16.7162 19.6699C15.4395 20.4265 13.984 20.8284 12.5 20.8341C10.9467 20.8408 9.42307 20.4095 8.10384 19.5896C6.78461 18.7696 5.72328 17.5944 5.04166 16.1987C4.91734 15.95 4.69934 15.761 4.43562 15.6731C4.1719 15.5851 3.88405 15.6056 3.63541 15.7299C3.38677 15.8542 3.1977 16.0722 3.10979 16.336C3.02189 16.5997 3.04234 16.8875 3.16666 17.1362C3.99252 18.7982 5.24741 20.2093 6.80153 21.2237C8.35564 22.2381 10.1525 22.8189 12.0064 22.9059C13.8602 22.993 15.7036 22.5832 17.346 21.719C18.9883 20.8547 20.37 19.5674 21.348 17.9902C22.326 16.4129 22.8649 14.603 22.9088 12.7476C22.9528 10.8923 22.5003 9.05887 21.5982 7.43704C20.696 5.8152 19.3769 4.46385 17.7774 3.52274C16.1778 2.58163 14.3559 2.08496 12.5 2.08409Z" fill="white" fill-opacity="0.5"/>
</svg>
