<svg width="42" height="10" viewBox="0 0 42 10" fill="none" xmlns="http://www.w3.org/2000/svg">
<path d="M19.8161 0.668945L17.2014 6.46372L14.5992 0.668945H11.2644V8.99173L7.54844 0.668945H4.73458L0.939453 9.30727H3.18534L4.01564 7.3794H8.26242L9.10633 9.30727H13.3939V2.89132L16.2387 9.30727H18.1728L21.0819 3.00269V9.30727H23.2128V0.668945H19.8161ZM4.81872 5.51339L6.0883 2.49412L7.40737 5.51339H4.81872Z" fill="#1976D2"/>
<path d="M37.2049 4.89221L41.0619 0.691218H38.3185L35.8511 3.36896L33.4642 0.668945H24.9756V9.30851H33.1858L35.7744 6.44887L38.2987 9.33078H41.0334L37.2049 4.89221ZM32.0634 7.49447H27.1002V5.78562H31.8494V4.14853H27.1002V2.53L32.3394 2.54485L34.4343 4.89221L32.0634 7.49447Z" fill="#1976D2"/>
</svg>
