<svg width="22" height="23" viewBox="0 0 22 23" fill="none" xmlns="http://www.w3.org/2000/svg">
<path d="M16.794 20.8083C15.9558 20.8083 14.7784 20.5051 13.0154 19.5201C10.8715 18.3178 9.21319 17.2079 7.08087 15.0811C5.02498 13.0265 4.02452 11.6963 2.6243 9.14834C1.04245 6.27147 1.3121 4.76348 1.61353 4.11897C1.97249 3.34866 2.50235 2.88793 3.18722 2.43063C3.57622 2.17577 3.98788 1.95729 4.41697 1.77797C4.45991 1.75951 4.49984 1.7419 4.53548 1.72602C4.74803 1.63026 5.07007 1.48556 5.47798 1.64014C5.75021 1.74233 5.99324 1.95144 6.37367 2.32715C7.15386 3.09661 8.22002 4.81028 8.61334 5.65187C8.87741 6.21909 9.05217 6.59351 9.0526 7.01345C9.0526 7.50509 8.80527 7.88424 8.50513 8.29344C8.44888 8.3703 8.39306 8.44372 8.33896 8.515C8.0122 8.94438 7.9405 9.06848 7.98773 9.29004C8.08348 9.73531 8.79754 11.0608 9.97105 12.2317C11.1446 13.4027 12.4318 14.0717 12.8788 14.167C13.1098 14.2164 13.2365 14.1416 13.6796 13.8033C13.7432 13.7548 13.8085 13.7045 13.8767 13.6543C14.3344 13.3138 14.696 13.0729 15.176 13.0729H15.1786C15.5964 13.0729 15.9541 13.2541 16.5466 13.553C17.3195 13.9428 19.0847 14.9953 19.8589 15.7763C20.2355 16.1559 20.4454 16.3981 20.5481 16.6699C20.7026 17.0791 20.5571 17.3998 20.4622 17.6145C20.4463 17.6501 20.4287 17.6892 20.4102 17.7326C20.2295 18.1609 20.0097 18.5717 19.7537 18.9598C19.2973 19.6425 18.8348 20.171 18.0628 20.5304C17.6663 20.718 17.2325 20.813 16.794 20.8083Z" fill="#0B19B7"/>
</svg>
