<svg width="31" height="31" viewBox="0 0 31 31" fill="none" xmlns="http://www.w3.org/2000/svg">
<path d="M15.8027 9.41198L18.6753 6.79102C19.888 8.0351 21.1216 9.31763 22.3691 10.5757C24.5393 12.7633 26.7514 14.909 28.8971 17.1211C30.5955 18.8684 30.5885 20.9268 28.8971 22.6706C26.8283 24.7918 24.7035 26.8641 22.6068 28.9609C20.3038 31.2219 18.2035 31.0612 16.0718 28.3808L18.4796 26.2211C19.3078 27.0004 19.9753 26.6265 20.7651 25.7983C22.6452 23.8378 24.6476 21.9821 26.5557 20.1195L15.8027 9.41198Z" fill="white"/>
<path d="M14.1841 2.49302L11.8881 4.93926L10.7489 4.24034L3.88895 11.0968C7.33465 14.5355 10.8013 18.0092 14.24 21.4479L11.675 23.957C8.18034 20.5183 4.504 16.9957 0.94298 13.3543C-0.245192 12.1382 -0.147343 9.99598 1.0618 8.71695C3.41717 6.22878 5.83196 3.77905 8.33411 1.43765C10.1303 -0.225793 12.1363 0.179584 14.1841 2.49302Z" fill="white"/>
<path d="M2.18054 16.6568L4.48349 18.7955L3.55043 19.9313L10.5746 26.9834L21.1249 16.2305L23.7598 19.0017C21.5046 21.2173 19.2436 23.441 16.9768 25.6729C15.8166 26.8157 14.6843 27.9864 13.5171 29.1186C11.5112 31.0617 9.57166 31.0617 7.60769 29.1186C5.64371 27.1756 3.73564 25.2641 1.80312 23.3281C-0.702529 20.8119 -0.615164 19.0297 2.18054 16.6568Z" fill="white"/>
<path d="M28.114 14.3503C27.5619 13.3019 25.6678 13.1761 26.2828 11.3414C26.3387 11.1771 26.0172 10.8521 25.8215 10.6425C23.7248 8.47929 21.5965 6.3266 19.3495 4.04112L8.92853 14.525L6.68848 11.8236C7.69493 10.8696 8.87262 9.78977 10.0119 8.67848C12.2449 6.47338 14.4465 4.22983 16.6796 2.0387C18.3291 0.39273 20.2651 0.354289 21.9076 1.96531C24.1965 4.19838 26.4506 6.45241 28.6906 8.75187C30.4484 10.5586 30.2387 12.5505 28.114 14.3503Z" fill="white"/>
</svg>
