<svg width="25" height="24" viewBox="0 0 25 24" fill="none" xmlns="http://www.w3.org/2000/svg">
<path d="M4.98527 4.99988H18.9847C20.4067 4.99988 21.4108 6.33727 20.9611 7.63233L19.225 12.6323C18.9414 13.449 18.1453 13.9999 17.2486 13.9999H6.32456M4.98527 4.99988L4.94319 4.71703C4.79657 3.73174 3.91757 2.99988 2.8808 2.99988H2.0835M4.98527 4.99988L6.32456 13.9999M6.32456 13.9999L6.51547 15.2827C6.66209 16.268 7.54109 16.9999 8.57786 16.9999H17.7085M17.7085 16.9999C16.5579 16.9999 15.6252 17.8953 15.6252 18.9999C15.6252 20.1044 16.5579 20.9999 17.7085 20.9999C18.8591 20.9999 19.7918 20.1044 19.7918 18.9999C19.7918 17.8953 18.8591 16.9999 17.7085 16.9999ZM11.4585 18.9999C11.4585 20.1044 10.5258 20.9999 9.37516 20.9999C8.22457 20.9999 7.29183 20.1044 7.29183 18.9999C7.29183 17.8953 8.22457 16.9999 9.37516 16.9999C10.5258 16.9999 11.4585 17.8953 11.4585 18.9999Z" stroke="#462B9C" stroke-width="1.71774" stroke-linecap="round" stroke-linejoin="round"/>
</svg>
