<svg width="30" height="30" viewBox="0 0 30 30" fill="none" xmlns="http://www.w3.org/2000/svg">
<path d="M2.5 15C2.5 10.286 2.5 7.92894 3.96446 6.46446C5.42894 5 7.78595 5 12.5 5H17.5C22.214 5 24.5711 5 26.0355 6.46446C27.5 7.92894 27.5 10.286 27.5 15V17.5C27.5 22.214 27.5 24.5711 26.0355 26.0355C24.5711 27.5 22.214 27.5 17.5 27.5H12.5C7.78595 27.5 5.42894 27.5 3.96446 26.0355C2.5 24.5711 2.5 22.214 2.5 17.5V15Z" stroke="white" stroke-opacity="0.71" stroke-width="2"/>
<path opacity="0.5" d="M8.75 5V3.125" stroke="white" stroke-opacity="0.71" stroke-width="2" stroke-linecap="round"/>
<path opacity="0.5" d="M21.25 5V3.125" stroke="white" stroke-opacity="0.71" stroke-width="2" stroke-linecap="round"/>
<path opacity="0.5" d="M2.5 11.25H27.5" stroke="white" stroke-opacity="0.71" stroke-width="2" stroke-linecap="round"/>
</svg>
