<svg width="16" height="17" viewBox="0 0 16 17" fill="none" xmlns="http://www.w3.org/2000/svg">
<rect y="0.44812" width="16" height="16" fill="#FF0000" fill-opacity="0.01"/>
<path d="M6.81216 5.06209C6.64917 3.18732 4.69333 2.26742 4.61056 2.22988C4.53291 2.19318 4.44587 2.18209 4.36224 2.1966C2.10432 2.57121 1.76469 3.88534 1.75104 3.93996C1.73227 4.01676 1.73568 4.09612 1.75957 4.17036C4.45269 12.5262 10.0497 14.075 11.8895 14.5844C12.0311 14.6237 12.1481 14.6553 12.2368 14.6843C12.2795 14.6988 12.3238 14.7048 12.3682 14.7048C12.4288 14.7048 12.4894 14.692 12.5449 14.6664C12.6012 14.6408 13.9307 14.0144 14.2558 11.9715C14.2703 11.8828 14.2558 11.7906 14.2148 11.7104C14.1858 11.6541 13.4903 10.3306 11.5618 9.86294C11.427 9.82796 11.2887 9.8638 11.1846 9.95254C10.5762 10.4722 9.73568 11.026 9.37301 11.0832C6.94187 9.89452 5.58421 7.61355 5.53301 7.18091C5.50315 6.93772 6.06037 6.08353 6.70123 5.38892C6.78229 5.30102 6.82325 5.18156 6.81216 5.06209Z" fill="black"/>
<mask id="mask0_182_1584" style="mask-type:luminance" maskUnits="userSpaceOnUse" x="1" y="2" width="14" height="13">
<path d="M6.81216 5.06209C6.64917 3.18732 4.69333 2.26742 4.61056 2.22988C4.53291 2.19318 4.44587 2.18209 4.36224 2.1966C2.10432 2.57121 1.76469 3.88534 1.75104 3.93996C1.73227 4.01676 1.73568 4.09612 1.75957 4.17036C4.45269 12.5262 10.0497 14.075 11.8895 14.5844C12.0311 14.6237 12.1481 14.6553 12.2368 14.6843C12.2795 14.6988 12.3238 14.7048 12.3682 14.7048C12.4288 14.7048 12.4894 14.692 12.5449 14.6664C12.6012 14.6408 13.9307 14.0144 14.2558 11.9715C14.2703 11.8828 14.2558 11.7906 14.2148 11.7104C14.1858 11.6541 13.4903 10.3306 11.5618 9.86294C11.427 9.82796 11.2887 9.8638 11.1846 9.95254C10.5762 10.4722 9.73568 11.026 9.37301 11.0832C6.94187 9.89452 5.58421 7.61355 5.53301 7.18091C5.50315 6.93772 6.06037 6.08353 6.70123 5.38892C6.78229 5.30102 6.82325 5.18156 6.81216 5.06209Z" fill="white"/>
</mask>
<g mask="url(#mask0_182_1584)">
<rect y="0.44812" width="16" height="16" fill="black"/>
</g>
</svg>
