<svg width="137" height="180" viewBox="0 0 137 180" fill="none" xmlns="http://www.w3.org/2000/svg">
<path d="M42.8125 135C47.5415 135 51.375 140.037 51.375 146.25C51.375 152.463 47.5415 157.5 42.8125 157.5C38.0835 157.5 34.25 152.463 34.25 146.25C34.25 140.037 38.0835 135 42.8125 135Z" stroke="#979797" stroke-width="6"/>
<path d="M94.1875 135.001C98.9163 135.001 102.75 140.037 102.75 146.251C102.75 152.464 98.9163 157.501 94.1875 157.501C89.4587 157.501 85.625 152.464 85.625 146.251C85.625 140.037 89.4587 135.001 94.1875 135.001Z" stroke="#979797" stroke-width="6"/>
<path d="M11.417 22.5L12.9081 23.1888C20.338 26.6209 24.053 28.3369 26.1778 32.4223C28.3027 36.5078 28.3027 41.9344 28.3027 52.7877V73.2C28.3027 95.262 28.6637 102.542 33.6094 109.396C38.5551 116.25 46.5151 116.25 62.4352 116.25H68.5003M92.706 116.25C101.617 116.25 106.072 116.25 109.221 112.878C112.371 109.506 113.27 103.773 115.069 92.3062L117.922 74.1206C119.903 61.0777 120.894 54.5563 118.36 50.2281C115.826 45.9 107.167 45.9 97.5489 45.9H62.9261M28.3027 45.9H39.9587" stroke="#979797" stroke-width="6" stroke-linecap="round"/>
</svg>
