<svg width="22" height="20" viewBox="0 0 22 20" fill="none" xmlns="http://www.w3.org/2000/svg">
<rect width="22" height="20" fill="#F5F5F5"/>
<path d="M-1502 -1787C-1502 -1788.1 -1501.1 -1789 -1500 -1789H10176C10177.1 -1789 10178 -1788.1 10178 -1787V6201C10178 6202.1 10177.1 6203 10176 6203H-1500C-1501.1 6203 -1502 6202.1 -1502 6201V-1787Z" fill="#A3A3A3"/>
<path d="M-1500 -1788H10176V-1790H-1500V-1788ZM10177 -1787V6201H10179V-1787H10177ZM10176 6202H-1500V6204H10176V6202ZM-1501 6201V-1787H-1503V6201H-1501ZM-1500 6202C-1500.55 6202 -1501 6201.55 -1501 6201H-1503C-1503 6202.66 -1501.66 6204 -1500 6204V6202ZM10177 6201C10177 6201.55 10176.6 6202 10176 6202V6204C10177.7 6204 10179 6202.66 10179 6201H10177ZM10176 -1788C10176.6 -1788 10177 -1787.55 10177 -1787H10179C10179 -1788.66 10177.7 -1790 10176 -1790V-1788ZM-1500 -1790C-1501.66 -1790 -1503 -1788.66 -1503 -1787H-1501C-1501 -1787.55 -1500.55 -1788 -1500 -1788V-1790Z" fill="black" fill-opacity="0.1"/>
<g clip-path="url(#clip0_0_1)">
<rect width="430" height="932" transform="translate(-168 -415)" fill="white"/>
<rect x="-137" y="-14" width="175.954" height="107.564" rx="12" fill="#FFC727"/>
<path d="M19.8181 9.20839L11.9048 9.68769C11.3837 9.71352 10.9029 9.42829 10.7097 8.97872C10.6276 8.75023 10.5876 8.51056 10.5912 8.26975C10.4297 5.95312 10.2575 3.63648 10.096 1.27991C10.0592 1.17784 10.0085 1.08053 9.94526 0.99033C9.69102 0.49323 9.10679 0.218198 8.52408 0.321302C3.71055 1.28734 0.270417 5.22987 0.255413 9.79753C0.248004 10.1683 0.27321 10.539 0.330778 10.9059C0.479208 12.1443 0.892837 13.3427 1.54739 14.4308C3.77344 18.2087 8.42101 20.1705 12.9547 19.2458C17.4883 18.3212 20.8198 14.7321 21.1316 10.4366C21.1374 10.1214 21.0079 9.81707 20.7717 9.59047C20.5354 9.36387 20.2118 9.23361 19.872 9.22836L19.8181 9.20839Z" fill="#F9F9FA"/>
<path opacity="0.6" d="M13.229 -3.00396C12.9719 -3.01479 12.7208 -2.93035 12.5309 -2.76925C12.3411 -2.60815 12.2281 -2.38363 12.2169 -2.1452V-2.00541L12.8306 6.47227C12.8294 6.75343 12.956 7.02205 13.1794 7.21213C13.4028 7.4022 13.7022 7.49613 14.0042 7.47082L23.1341 6.90165C23.3885 6.88628 23.6258 6.77756 23.7935 6.59954C23.9612 6.42151 24.0455 6.18885 24.0278 5.95302C24.033 5.92326 24.033 5.89292 24.0278 5.86316C23.2047 0.878987 18.6631 -2.85018 13.229 -3.00396Z" fill="white"/>
</g>
<defs>
<clipPath id="clip0_0_1">
<rect width="430" height="932" fill="white" transform="translate(-168 -415)"/>
</clipPath>
</defs>
</svg>
