<svg width="23" height="25" viewBox="0 0 23 25" fill="none" xmlns="http://www.w3.org/2000/svg">
<path fill-rule="evenodd" clip-rule="evenodd" d="M9.21889 23.8736C8.81998 23.7941 8.56483 23.4012 8.64317 22.9996C8.72151 22.5951 9.10892 22.3363 9.50423 22.4158C14.6512 23.4348 19.7076 20.2749 21.1257 15.155C22.5409 10.0322 19.8399 4.66807 14.9179 2.8261C9.99945 0.986311 4.51036 3.28459 2.30667 8.11075C0.0993886 12.9369 1.92142 18.6713 6.48692 21.2852C6.83192 21.4878 6.95051 21.9347 6.75358 22.2845C6.55448 22.6352 6.11317 22.7547 5.76817 22.555C0.573764 19.5227 -1.4567 12.9544 1.10492 7.45837C3.66798 1.96598 9.95992 -0.613662 15.5669 1.53592C21.1731 3.68258 24.2142 9.83974 22.5517 15.6791C20.8899 21.5192 15.0839 25.0836 9.21026 23.8736H9.21889Z" fill="#202244"/>
<path fill-rule="evenodd" clip-rule="evenodd" d="M11.518 5.1551C7.5483 5.1551 4.33045 8.41846 4.33045 12.4443C4.33045 16.4701 7.5483 19.7334 11.518 19.7334C15.4876 19.7334 18.7055 16.4701 18.7055 12.4443C18.7055 8.41846 15.4876 5.1551 11.518 5.1551ZM11.518 21.1913C6.75336 21.1913 2.89295 17.2763 2.89295 12.4443C2.89295 7.61228 6.75336 3.69727 11.518 3.69727C16.2825 3.69727 20.143 7.61228 20.143 12.4443C20.143 17.2763 16.2825 21.1913 11.518 21.1913Z" fill="#202244"/>
<path fill-rule="evenodd" clip-rule="evenodd" d="M11.518 18.2758C11.1219 18.2758 10.7992 17.9485 10.7992 17.5469C10.7992 17.1452 11.1219 16.818 11.518 16.818C11.914 16.818 12.2367 17.1452 12.2367 17.5469C12.2367 17.9485 11.914 18.2758 11.518 18.2758ZM11.518 15.3601C11.1219 15.3601 10.7992 15.0328 10.7992 14.6312C10.7992 13.6034 11.4087 12.6748 12.3431 12.2768C13.4212 11.8438 13.9689 10.6222 13.5815 9.51421C13.1941 8.40407 12.0117 7.80636 10.9056 8.15624C9.79942 8.50976 9.16549 9.68551 9.46808 10.819C9.56942 11.2089 9.33655 11.6077 8.95202 11.7068C8.56749 11.8096 8.17433 11.5734 8.07586 11.1834C7.59574 9.29845 8.66236 7.36463 10.4959 6.79243C12.3294 6.21732 14.2837 7.205 14.9349 9.03604C15.5861 10.8671 14.7049 12.8942 12.9332 13.6406C12.5228 13.7944 12.2453 14.1873 12.2367 14.6312C12.2367 15.0328 11.914 15.3601 11.518 15.3601Z" fill="#202244"/>
</svg>
