<svg width="24" height="23" viewBox="0 0 24 23" fill="none" xmlns="http://www.w3.org/2000/svg">
<rect width="24" height="23" fill="#F5F5F5"/>
<path d="M-1696 -1784C-1696 -1785.1 -1695.1 -1786 -1694 -1786H9982C9983.1 -1786 9984 -1785.1 9984 -1784V6204C9984 6205.1 9983.1 6206 9982 6206H-1694C-1695.1 6206 -1696 6205.1 -1696 6204V-1784Z" fill="#A3A3A3"/>
<path d="M-1694 -1785H9982V-1787H-1694V-1785ZM9983 -1784V6204H9985V-1784H9983ZM9982 6205H-1694V6207H9982V6205ZM-1695 6204V-1784H-1697V6204H-1695ZM-1694 6205C-1694.55 6205 -1695 6204.55 -1695 6204H-1697C-1697 6205.66 -1695.66 6207 -1694 6207V6205ZM9983 6204C9983 6204.55 9982.55 6205 9982 6205V6207C9983.66 6207 9985 6205.66 9985 6204H9983ZM9982 -1785C9982.55 -1785 9983 -1784.55 9983 -1784H9985C9985 -1785.66 9983.66 -1787 9982 -1787V-1785ZM-1694 -1787C-1695.66 -1787 -1697 -1785.66 -1697 -1784H-1695C-1695 -1784.55 -1694.55 -1785 -1694 -1785V-1787Z" fill="black" fill-opacity="0.1"/>
<g clip-path="url(#clip0_0_1)">
<rect width="430" height="932" transform="translate(-362 -412)" fill="white"/>
<rect x="-137.046" y="-11" width="175.954" height="107.564" rx="12" fill="#10B981"/>
<path d="M19.7724 12.2084L11.859 12.6877C11.3379 12.7135 10.8571 12.4283 10.6639 11.9787C10.5818 11.7502 10.5418 11.5106 10.5455 11.2697C10.384 8.95312 10.2117 6.63648 10.0502 4.27991C10.0134 4.17784 9.96277 4.08053 9.89948 3.99033C9.64525 3.49323 9.06101 3.2182 8.4783 3.3213C3.66478 4.28734 0.224641 8.22987 0.209637 12.7975C0.202228 13.1683 0.227433 13.539 0.285002 13.9059C0.433432 15.1443 0.847061 16.3427 1.50162 17.4308C3.72766 21.2087 8.37524 23.1705 12.9089 22.2458C17.4426 21.3212 20.774 17.7321 21.0859 13.4366C21.0916 13.1214 20.9621 12.8171 20.7259 12.5905C20.4896 12.3639 20.166 12.2336 19.8262 12.2284L19.7724 12.2084Z" fill="#F9F9FA"/>
<path opacity="0.6" d="M13.1832 -0.00395573C12.9261 -0.0147877 12.675 0.0696548 12.4851 0.230751C12.2953 0.391847 12.1823 0.616365 12.1711 0.854796V0.994593L12.7848 9.47227C12.7836 9.75343 12.9102 10.0221 13.1336 10.2121C13.357 10.4022 13.6565 10.4961 13.9584 10.4708L23.0884 9.90165C23.3427 9.88628 23.58 9.77756 23.7477 9.59954C23.9154 9.42151 23.9997 9.18885 23.982 8.95302C23.9872 8.92326 23.9872 8.89292 23.982 8.86316C23.1589 3.87899 18.6173 0.149823 13.1832 -0.00395573Z" fill="white"/>
</g>
<defs>
<clipPath id="clip0_0_1">
<rect width="430" height="932" fill="white" transform="translate(-362 -412)"/>
</clipPath>
</defs>
</svg>
