<svg width="25" height="23" viewBox="0 0 25 23" fill="none" xmlns="http://www.w3.org/2000/svg">
<rect width="25" height="23" fill="#F5F5F5"/>
<path d="M-1502 -1784C-1502 -1785.1 -1501.1 -1786 -1500 -1786H10176C10177.1 -1786 10178 -1785.1 10178 -1784V6204C10178 6205.1 10177.1 6206 10176 6206H-1500C-1501.1 6206 -1502 6205.1 -1502 6204V-1784Z" fill="#A3A3A3"/>
<path d="M-1500 -1785H10176V-1787H-1500V-1785ZM10177 -1784V6204H10179V-1784H10177ZM10176 6205H-1500V6207H10176V6205ZM-1501 6204V-1784H-1503V6204H-1501ZM-1500 6205C-1500.55 6205 -1501 6204.55 -1501 6204H-1503C-1503 6205.66 -1501.66 6207 -1500 6207V6205ZM10177 6204C10177 6204.55 10176.6 6205 10176 6205V6207C10177.7 6207 10179 6205.66 10179 6204H10177ZM10176 -1785C10176.6 -1785 10177 -1784.55 10177 -1784H10179C10179 -1785.66 10177.7 -1787 10176 -1787V-1785ZM-1500 -1787C-1501.66 -1787 -1503 -1785.66 -1503 -1784H-1501C-1501 -1784.55 -1500.55 -1785 -1500 -1785V-1787Z" fill="black" fill-opacity="0.1"/>
<g clip-path="url(#clip0_0_1)">
<rect width="430" height="932" transform="translate(-168 -412)" fill="white"/>
<rect x="-137" y="-11" width="175.954" height="107.564" rx="12" fill="#FFC727"/>
<path d="M19.8181 12.2084L11.9048 12.6877C11.3837 12.7135 10.9029 12.4283 10.7097 11.9787C10.6276 11.7502 10.5876 11.5106 10.5912 11.2697C10.4297 8.95312 10.2575 6.63648 10.096 4.27991C10.0592 4.17784 10.0085 4.08053 9.94526 3.99033C9.69102 3.49323 9.10679 3.2182 8.52408 3.3213C3.71055 4.28734 0.270417 8.22987 0.255413 12.7975C0.248004 13.1683 0.27321 13.539 0.330778 13.9059C0.479208 15.1443 0.892837 16.3427 1.54739 17.4308C3.77344 21.2087 8.42101 23.1705 12.9547 22.2458C17.4883 21.3212 20.8198 17.7321 21.1316 13.4366C21.1374 13.1214 21.0079 12.8171 20.7717 12.5905C20.5354 12.3639 20.2118 12.2336 19.872 12.2284L19.8181 12.2084Z" fill="#F9F9FA"/>
<path opacity="0.6" d="M13.229 -0.00395573C12.9719 -0.0147877 12.7208 0.0696548 12.5309 0.230751C12.3411 0.391847 12.2281 0.616365 12.2169 0.854796V0.994593L12.8306 9.47227C12.8294 9.75343 12.956 10.0221 13.1794 10.2121C13.4028 10.4022 13.7022 10.4961 14.0042 10.4708L23.1341 9.90165C23.3885 9.88628 23.6258 9.77756 23.7935 9.59954C23.9612 9.42151 24.0455 9.18885 24.0278 8.95302C24.033 8.92326 24.033 8.89292 24.0278 8.86316C23.2047 3.87899 18.6631 0.149823 13.229 -0.00395573Z" fill="white"/>
</g>
<defs>
<clipPath id="clip0_0_1">
<rect width="430" height="932" fill="white" transform="translate(-168 -412)"/>
</clipPath>
</defs>
</svg>
