<svg width="43" height="46" viewBox="0 0 43 46" fill="none" xmlns="http://www.w3.org/2000/svg">
<g clip-path="url(#clip0_40_966)">
<path d="M24.9017 12.9821H24.8617C24.4907 12.9821 24.2098 13.3039 24.2098 13.7008C24.2098 14.0977 24.5307 14.4196 24.9017 14.4196C25.2728 14.4196 25.5736 14.0977 25.5736 13.7008C25.5736 13.3039 25.2727 12.9821 24.9017 12.9821Z" fill="white"/>
<path d="M30.3544 12.9821H30.317C29.946 12.9821 29.6638 13.3039 29.6638 13.7008C29.6638 14.0977 29.9834 14.4196 30.3544 14.4196C30.7254 14.4196 31.0262 14.0977 31.0262 13.7008C31.0262 13.3039 30.7255 12.9821 30.3544 12.9821Z" fill="white"/>
<path d="M35.8098 12.9821H35.7698C35.3988 12.9821 35.1179 13.3039 35.1179 13.7008C35.1179 14.0977 35.4387 14.4196 35.8098 14.4196C36.1809 14.4196 36.4817 14.0977 36.4817 13.7008C36.4817 13.3039 36.1809 12.9821 35.8098 12.9821Z" fill="white"/>
<path d="M30.3656 33.0099C26.9062 30.9228 25.8702 31.0934 23.2322 32.6888C21.8786 33.6511 20.2488 33.0643 17.4162 30.5964C16.8602 30.1118 16.3015 29.5713 15.7575 28.9923C15.2139 28.4083 14.709 27.8106 14.2563 27.2154C12.1209 24.4123 11.5395 21.8542 12.2331 21.0832C14.277 18.7322 13.8131 16.8016 12.009 13.3801C10.9225 11.1814 9.72931 8.99289 8.1412 8.4907C6.98967 8.12888 5.27982 9.07677 4.77067 9.4383C3.46105 10.3715 2.21734 12.022 1.52478 13.7463C0.250901 16.9185 0.588787 20.7418 1.32993 23.2623C2.54737 27.3944 5.46942 32.1793 9.14706 36.0622C12.7781 39.9982 17.2509 43.1234 21.1119 44.4222C22.3316 44.8339 23.8778 45.1298 25.4981 45.1298C27.0056 45.1298 28.5773 44.8736 30.008 44.2162C31.6197 43.474 33.1616 42.1435 34.0317 40.7442C34.3703 40.2013 35.2596 38.3725 34.9175 37.1354C34.4507 35.4395 32.4049 34.1628 30.3656 33.0099ZM29.7216 34.2715C30.966 34.9752 33.2824 36.2853 33.6285 37.5428C33.6995 37.799 33.6132 38.2658 33.454 38.751L24.364 33.6558C26.0737 32.6431 26.766 32.4882 29.7216 34.2715ZM7.76105 9.86948C8.93845 10.2419 10.1631 12.7203 10.8298 14.069C12.591 17.409 12.5854 18.463 11.4529 19.8606L6.54946 10.0881C6.92302 9.94035 7.29182 9.84289 7.5566 9.84289C7.63474 9.84281 7.70361 9.85129 7.76105 9.86948ZM29.4772 42.8955C26.8451 44.1056 23.5438 43.736 21.5154 43.051C17.8525 41.8188 13.5851 38.8273 10.1005 35.0493C10.0982 35.0469 10.0962 35.0448 10.0939 35.0423C6.56391 31.3158 3.76655 26.7503 2.61174 22.8306C1.97366 20.6603 1.62952 17.1276 2.75968 14.3133C3.32681 12.9013 4.31326 11.5611 5.35977 10.7569L10.683 21.367C10.39 23.0727 11.3004 25.6103 13.2144 28.1233C13.695 28.755 14.2304 29.3888 14.8075 30.0086C15.3849 30.6238 15.977 31.1965 16.5675 31.7111C18.6422 33.5189 20.8207 35.0362 22.8608 34.4362L32.8521 40.0367C32.1081 41.1846 30.8272 42.274 29.4772 42.8955Z" fill="white"/>
<path d="M40.9542 7.74167C37.8832 1.47999 30.6212 -0.941905 24.7656 2.34084C18.9123 5.62718 16.6473 13.3965 19.717 19.6596C19.9394 20.1134 20.1933 20.5616 20.4744 20.9974L18.6596 24.3252C18.5329 24.5572 18.5378 24.8456 18.6727 25.0724C18.8068 25.2994 19.0487 25.4254 19.2989 25.4033L24.506 24.9109C26.3264 25.9939 28.3289 26.5372 30.3343 26.5372C32.2407 26.5372 34.1497 26.0459 35.9062 25.06C41.7599 21.7741 44.0245 14.0051 40.9542 7.74167ZM35.282 23.7872C32.0252 25.615 28.1787 25.5276 24.9919 23.5535C24.8896 23.4899 24.7731 23.4566 24.6553 23.4566C24.6356 23.4566 24.6159 23.4576 24.5963 23.4594L20.4751 23.8489L21.8546 21.3197C21.9901 21.0708 21.974 20.7595 21.8133 20.5286C21.4685 20.0327 21.1637 19.5157 20.9072 18.9921C18.1813 13.4309 20.192 6.5323 25.3899 3.61375C30.5887 0.696988 37.0368 2.84972 39.7643 8.40954C42.4905 13.9711 40.4794 20.8694 35.282 23.7872Z" fill="white"/>
</g>
<defs>
<clipPath id="clip0_40_966">
<rect width="43" height="46" fill="white"/>
</clipPath>
</defs>
</svg>
