<svg width="16" height="17" viewBox="0 0 16 17" fill="none" xmlns="http://www.w3.org/2000/svg">
<path d="M7.432 11.132C7.3976 11.17 7.36554 11.2101 7.336 11.252C7.30573 11.2966 7.28151 11.345 7.264 11.396C7.24094 11.4413 7.22476 11.4899 7.216 11.54C7.21208 11.5933 7.21208 11.6467 7.216 11.7C7.2133 11.8049 7.23522 11.9091 7.28 12.004C7.31593 12.1033 7.37326 12.1934 7.44791 12.2681C7.52257 12.3427 7.61273 12.4001 7.712 12.436C7.80776 12.4783 7.91131 12.5002 8.016 12.5002C8.1207 12.5002 8.22424 12.4783 8.32 12.436C8.41928 12.4001 8.50944 12.3427 8.58409 12.2681C8.65875 12.1934 8.71607 12.1033 8.752 12.004C8.78753 11.9067 8.80383 11.8035 8.8 11.7C8.80061 11.5947 8.78043 11.4903 8.74062 11.3929C8.70081 11.2954 8.64215 11.2068 8.568 11.132C8.49363 11.057 8.40515 10.9975 8.30766 10.9569C8.21018 10.9163 8.10561 10.8954 8 10.8954C7.89439 10.8954 7.78983 10.9163 7.69234 10.9569C7.59485 10.9975 7.50637 11.057 7.432 11.132ZM8 0.5C6.41775 0.5 4.87103 0.969192 3.55544 1.84824C2.23985 2.72729 1.21447 3.97672 0.608967 5.43853C0.00346627 6.90034 -0.15496 8.50887 0.153721 10.0607C0.462403 11.6126 1.22433 13.038 2.34315 14.1569C3.46197 15.2757 4.88743 16.0376 6.43928 16.3463C7.99113 16.655 9.59966 16.4965 11.0615 15.891C12.5233 15.2855 13.7727 14.2602 14.6518 12.9446C15.5308 11.629 16 10.0822 16 8.5C16 7.44942 15.7931 6.40914 15.391 5.43853C14.989 4.46793 14.3997 3.58601 13.6569 2.84315C12.914 2.10028 12.0321 1.511 11.0615 1.10896C10.0909 0.706926 9.05058 0.5 8 0.5ZM8 14.9C6.7342 14.9 5.49683 14.5246 4.44435 13.8214C3.39188 13.1182 2.57158 12.1186 2.08717 10.9492C1.60277 9.77973 1.47603 8.4929 1.72298 7.25142C1.96992 6.00994 2.57946 4.86957 3.47452 3.97452C4.36958 3.07946 5.50995 2.46992 6.75142 2.22297C7.9929 1.97603 9.27973 2.10277 10.4492 2.58717C11.6186 3.07157 12.6182 3.89188 13.3214 4.94435C14.0246 5.99682 14.4 7.2342 14.4 8.5C14.4 10.1974 13.7257 11.8252 12.5255 13.0255C11.3253 14.2257 9.69739 14.9 8 14.9ZM8 4.5C7.57845 4.49973 7.16427 4.6105 6.79913 4.82115C6.43399 5.03181 6.13078 5.33493 5.92 5.7C5.86212 5.79105 5.82325 5.89288 5.80574 5.99934C5.78823 6.1058 5.79244 6.21471 5.81811 6.31951C5.84377 6.42431 5.89038 6.52283 5.95511 6.60915C6.01984 6.69547 6.10137 6.7678 6.19478 6.82179C6.28819 6.87579 6.39156 6.91033 6.49867 6.92334C6.60578 6.93635 6.71441 6.92756 6.81803 6.8975C6.92165 6.86744 7.01813 6.81673 7.10164 6.74841C7.18516 6.6801 7.25399 6.5956 7.304 6.5C7.37449 6.37792 7.47598 6.27662 7.5982 6.20638C7.72042 6.13614 7.85903 6.09944 8 6.1C8.21218 6.1 8.41566 6.18428 8.56569 6.33431C8.71572 6.48434 8.8 6.68783 8.8 6.9C8.8 7.11217 8.71572 7.31566 8.56569 7.46568C8.41566 7.61571 8.21218 7.7 8 7.7C7.78783 7.7 7.58435 7.78428 7.43432 7.93431C7.28429 8.08434 7.2 8.28783 7.2 8.5V9.3C7.2 9.51217 7.28429 9.71566 7.43432 9.86568C7.58435 10.0157 7.78783 10.1 8 10.1C8.21218 10.1 8.41566 10.0157 8.56569 9.86568C8.71572 9.71566 8.8 9.51217 8.8 9.3V9.156C9.3291 8.96402 9.77389 8.59218 10.0566 8.10549C10.3393 7.61881 10.442 7.04823 10.3467 6.49351C10.2514 5.93879 9.96416 5.43521 9.5352 5.07081C9.10623 4.70641 8.56284 4.50437 8 4.5Z" fill="black"/>
</svg>
