<svg width="24" height="16" viewBox="0 0 24 16" fill="none" xmlns="http://www.w3.org/2000/svg">
<path fill-rule="evenodd" clip-rule="evenodd" d="M1.95026 16C0.893656 16 0.0371094 15.2165 0.0371094 14.25L0.0371094 2.25C0.0371094 1.2835 0.893655 0.5 1.95026 0.5L21.5698 0.5C22.7219 0.5 23.3569 1.72407 22.6284 2.54047L20.6565 4.75L23.0746 7.45953C23.4851 7.91959 23.4851 8.5804 23.0746 9.04047L20.6565 11.75L22.6284 13.9595C23.3569 14.7759 22.7219 16 21.5698 16L1.95026 16ZM1.67695 14.25C1.67695 14.3881 1.79931 14.5 1.95026 14.5L20.9938 14.5L19.2451 12.5405C18.8345 12.0804 18.8345 11.4196 19.2451 10.9595L21.6632 8.25L19.2451 5.54047C18.8345 5.0804 18.8345 4.41959 19.2451 3.95953L20.9938 2L1.95026 2C1.79931 2 1.67695 2.11193 1.67695 2.25L1.67695 14.25Z" fill="#C9C5C4"/>
<path fill-rule="evenodd" clip-rule="evenodd" d="M7.4166 13C6.96377 13 6.59668 12.6642 6.59668 12.25L6.59668 4.25C6.59668 3.83579 6.96377 3.5 7.4166 3.5C7.86943 3.5 8.23652 3.83579 8.23652 4.25V12.25C8.23652 12.6642 7.86943 13 7.4166 13Z" fill="#C9C5C4"/>
<path fill-rule="evenodd" clip-rule="evenodd" d="M10.6969 13C10.244 13 9.87695 12.6642 9.87695 12.25L9.87695 4.25C9.87695 3.83579 10.244 3.5 10.6969 3.5C11.1497 3.5 11.5168 3.83579 11.5168 4.25V12.25C11.5168 12.6642 11.1497 13 10.6969 13Z" fill="#C9C5C4"/>
<path fill-rule="evenodd" clip-rule="evenodd" d="M13.9762 13C13.5233 13 13.1562 12.6642 13.1562 12.25L13.1562 4.25C13.1562 3.83579 13.5233 3.5 13.9762 3.5C14.429 3.5 14.7961 3.83579 14.7961 4.25V12.25C14.7961 12.6642 14.429 13 13.9762 13Z" fill="#C9C5C4"/>
</svg>
