<svg width="10" height="14" viewBox="0 0 10 14" fill="none" xmlns="http://www.w3.org/2000/svg">
<path d="M9.30533 4.65792L9.0953 11.015C9.07741 11.5594 8.84806 12.0755 8.45593 12.4536C8.06379 12.8317 7.53975 13.0421 6.99501 13.0402H3.00446C2.46008 13.0421 1.93634 12.832 1.54426 12.4543C1.15218 12.0767 0.922599 11.5611 0.904174 11.0171L0.694146 4.65792C0.68955 4.51866 0.740463 4.38328 0.835683 4.28156C0.930904 4.17984 1.06263 4.12012 1.20189 4.11552C1.34115 4.11093 1.47653 4.16184 1.57825 4.25706C1.67997 4.35228 1.73969 4.48401 1.74429 4.62327L1.95432 10.9819C1.96478 11.2533 2.08002 11.5102 2.27584 11.6985C2.47165 11.8867 2.73281 11.9918 3.00446 11.9916H6.99501C7.26701 11.9918 7.52847 11.8864 7.72435 11.6977C7.92022 11.509 8.03523 11.2516 8.04516 10.9798L8.25519 4.62327C8.25978 4.48401 8.31951 4.35228 8.42123 4.25706C8.52295 4.16184 8.65833 4.11093 8.79758 4.11552C8.93684 4.12012 9.06857 4.17984 9.16379 4.28156C9.25901 4.38328 9.30993 4.51866 9.30533 4.65792ZM10 2.5424C10 2.68166 9.94468 2.81522 9.84621 2.91369C9.74774 3.01216 9.61419 3.06748 9.47493 3.06748H0.525072C0.385814 3.06748 0.25226 3.01216 0.15379 2.91369C0.0553198 2.81522 0 2.68166 0 2.5424C0 2.40315 0.0553198 2.26959 0.15379 2.17112C0.25226 2.07265 0.385814 2.01733 0.525072 2.01733H2.1528C2.31916 2.01778 2.47975 1.95632 2.6033 1.8449C2.72685 1.73348 2.80452 1.58008 2.82121 1.41455C2.85996 1.02625 3.04188 0.666286 3.33153 0.404787C3.62118 0.143289 3.9978 -0.00100988 4.38803 5.32049e-06H5.61145C6.00167 -0.00100988 6.3783 0.143289 6.66795 0.404787C6.95759 0.666286 7.13951 1.02625 7.17826 1.41455C7.19495 1.58008 7.27263 1.73348 7.39618 1.8449C7.51973 1.95632 7.68031 2.01778 7.84668 2.01733H9.4744C9.61366 2.01733 9.74722 2.07265 9.84569 2.17112C9.94415 2.26959 9.99947 2.40315 9.99947 2.5424H10ZM3.73274 2.01733H6.26779C6.19879 1.85968 6.15366 1.69262 6.13389 1.52166C6.12089 1.39224 6.0603 1.27225 5.96387 1.18494C5.86745 1.09764 5.74205 1.04923 5.61197 1.0491H4.38855C4.25848 1.04923 4.13308 1.09764 4.03665 1.18494C3.94023 1.27225 3.87964 1.39224 3.86663 1.52166C3.8467 1.69265 3.80192 1.8597 3.73274 2.01733ZM4.26149 9.9727V5.50171C4.26149 5.36245 4.20617 5.2289 4.1077 5.13043C4.00923 5.03196 3.87567 4.97664 3.73641 4.97664C3.59716 4.97664 3.4636 5.03196 3.36513 5.13043C3.26666 5.2289 3.21134 5.36245 3.21134 5.50171V9.9748C3.21134 10.1141 3.26666 10.2476 3.36513 10.3461C3.4636 10.4446 3.59716 10.4999 3.73641 10.4999C3.87567 10.4999 4.00923 10.4446 4.1077 10.3461C4.20617 10.2476 4.26149 10.1141 4.26149 9.9748V9.9727ZM6.78918 9.9727V5.50171C6.78918 5.36245 6.73386 5.2289 6.63539 5.13043C6.53692 5.03196 6.40337 4.97664 6.26411 4.97664C6.12485 4.97664 5.9913 5.03196 5.89283 5.13043C5.79436 5.2289 5.73904 5.36245 5.73904 5.50171V9.9748C5.73904 10.1141 5.79436 10.2476 5.89283 10.3461C5.9913 10.4446 6.12485 10.4999 6.26411 10.4999C6.40337 10.4999 6.53692 10.4446 6.63539 10.3461C6.73386 10.2476 6.78918 10.1141 6.78918 9.9748V9.9727Z" fill="white"/>
</svg>
