<svg width="36" height="22" viewBox="0 0 36 22" fill="none" xmlns="http://www.w3.org/2000/svg">
<path d="M24.7696 0.169922H11.2312C5.27424 0.169922 0.400391 5.04377 0.400391 11.0007C0.400391 16.9576 5.27424 21.8315 11.2312 21.8315H24.7696C30.7266 21.8315 35.6004 16.9576 35.6004 11.0007C35.6004 5.04377 30.7266 0.169922 24.7696 0.169922Z" fill="#1565C0"/>
<path d="M11.2305 2.87695C6.76281 2.87695 3.10742 6.53234 3.10742 11C3.10742 15.4677 6.76281 19.1231 11.2305 19.1231C15.6982 19.1231 19.3536 15.4677 19.3536 11C19.3536 6.53234 15.6982 2.87695 11.2305 2.87695ZM5.81512 11C5.81512 8.42773 7.57512 6.39696 9.87666 5.72003V16.1447C7.57512 15.6031 5.81512 13.5723 5.81512 11ZM12.5844 16.28V5.85542C14.8859 6.39696 16.6459 8.56311 16.6459 11.1354C16.6459 13.5723 14.8859 15.6031 12.5844 16.28Z" fill="white"/>
</svg>
