<svg width="10" height="10" viewBox="0 0 10 10" fill="none" xmlns="http://www.w3.org/2000/svg">
<path d="M9.62773 2.05142L7.91522 0.338904C7.69171 0.128962 7.39883 0.00849981 7.09229 0.000432978C6.78575 -0.00763385 6.48694 0.0972574 6.2527 0.295154L0.627634 5.92022C0.42561 6.12395 0.29982 6.39097 0.27138 6.67647L0.00262687 9.28275C-0.00579262 9.3743 0.00608587 9.46657 0.0374155 9.553C0.0687452 9.63943 0.118754 9.71788 0.183879 9.78276C0.24228 9.84069 0.31154 9.88652 0.38769 9.91762C0.463839 9.94872 0.545379 9.96449 0.627634 9.96401H0.683885L3.29016 9.72651C3.57566 9.69807 3.84269 9.57228 4.04642 9.37025L9.67148 3.74519C9.88981 3.51454 10.0078 3.20675 9.9996 2.88927C9.9914 2.57178 9.85768 2.27049 9.62773 2.05142ZM3.17766 8.4765L1.30264 8.6515L1.47139 6.77648L5.00268 3.28894L6.6902 4.97646L3.17766 8.4765ZM7.50271 4.13895L5.82769 2.46393L7.04646 1.21391L8.75272 2.92018L7.50271 4.13895Z" fill="white"/>
</svg>
