<svg width="21" height="15" viewBox="0 0 21 15" fill="none" xmlns="http://www.w3.org/2000/svg">
<path fill-rule="evenodd" clip-rule="evenodd" d="M20.2915 2.37773L19.5101 1.6236L12.2635 8.599C11.3581 9.47004 9.83527 9.47004 8.92748 8.599L1.68328 1.66402L0.899414 2.41617L6.29387 7.60829L0.899414 12.8004L1.68328 13.5526L7.07485 8.36044L8.1465 9.39157C8.80603 10.0264 9.66895 10.3823 10.5743 10.3823C11.4821 10.3823 12.345 10.0264 13.0049 9.39157L14.0737 8.36044L19.4681 13.5526L20.2491 12.8004L14.8576 7.60829L20.2915 2.37773Z" fill="#545454"/>
<path fill-rule="evenodd" clip-rule="evenodd" d="M2.46443 1.46578C2.13466 1.46578 1.88929 1.70435 1.88929 2.01979V13.1966C1.88929 13.512 2.13466 13.7506 2.46443 13.7506H18.7264C19.0566 13.7506 19.304 13.512 19.304 13.1966V2.01979C19.304 1.70435 19.0566 1.46578 18.7264 1.46578H2.46443ZM18.7688 14.899H2.50683C1.55911 14.899 0.77771 14.1469 0.77771 13.235V2.06021C0.77771 1.14836 1.55911 0.39621 2.50683 0.39621H18.7688C19.7157 0.39621 20.4975 1.14836 20.4975 2.06021V13.235C20.4975 14.1469 19.7157 14.899 18.7688 14.899Z" fill="#545454"/>
</svg>
