<svg width="20" height="22" viewBox="0 0 20 22" fill="none" xmlns="http://www.w3.org/2000/svg">
<path d="M13.4266 18.3074C12.7484 18.3074 12.17 18.0677 11.6913 17.5882C11.2126 17.1088 10.9729 16.5307 10.9721 15.854C10.9713 15.1774 11.211 14.5985 11.6913 14.1175C12.1715 13.6365 12.75 13.3971 13.4266 13.3995C14.1033 13.4018 14.6818 13.6415 15.162 14.1187C15.6422 14.5958 15.8816 15.1743 15.88 15.854C15.8785 16.5338 15.6388 17.1122 15.1608 17.5894C14.6829 18.0665 14.1049 18.3059 13.4266 18.3074ZM2.67345 21.7874C2.13985 21.7874 1.69441 21.6088 1.33713 21.2515C0.979849 20.8942 0.800822 20.4484 0.800049 19.914V5.10083C0.800049 4.56722 0.979075 4.12179 1.33713 3.76451C1.69518 3.40723 2.14101 3.2282 2.67461 3.22743H4.72665V0.640625H5.97597V3.22743H14.2746V0.640625H15.4346V3.22743H17.4866C18.0202 3.22743 18.4661 3.40645 18.8241 3.76451C19.1822 4.12256 19.3608 4.56839 19.36 5.10199V19.914C19.36 20.4476 19.1814 20.8935 18.8241 21.2515C18.4668 21.6096 18.0206 21.7882 17.4855 21.7874H2.67345ZM2.67345 20.6274H17.4866C17.6645 20.6274 17.8281 20.5532 17.9773 20.4047C18.1266 20.2562 18.2008 20.0923 18.2 19.9129V9.74199H1.96005V19.914C1.96005 20.0919 2.03429 20.2555 2.18277 20.4047C2.33125 20.554 2.49481 20.6282 2.67345 20.6274ZM1.96005 8.58083H18.2V5.10083C18.2 4.92296 18.1258 4.7594 17.9773 4.61015C17.8288 4.46089 17.6649 4.38665 17.4855 4.38743H2.67461C2.49597 4.38743 2.33202 4.46167 2.18277 4.61015C2.03352 4.75863 1.95928 4.92257 1.96005 5.10199V8.58083Z" fill="white"/>
</svg>
