<svg width="21" height="22" viewBox="0 0 21 22" fill="none" xmlns="http://www.w3.org/2000/svg">
<path d="M18.375 8.82312C18.375 15.9806 10.5 19.3231 10.5 19.3231C10.5 19.3231 2.625 16.0156 2.625 8.82312C2.57476 7.72277 2.9597 6.64688 3.69656 5.82815C4.43342 5.00941 5.46296 4.51366 6.5625 4.44812C7.66204 4.51366 8.69159 5.00941 9.42845 5.82815C10.1653 6.64688 10.5502 7.72277 10.5 8.82312C10.4498 7.72277 10.8347 6.64688 11.5716 5.82815C12.3084 5.00941 13.338 4.51366 14.4375 4.44812C15.537 4.51366 16.5666 5.00941 17.3034 5.82815C18.0403 6.64688 18.4252 7.72277 18.375 8.82312Z" stroke="black" stroke-linecap="round" stroke-linejoin="round"/>
</svg>
