<svg width="17" height="18" viewBox="0 0 17 18" fill="none" xmlns="http://www.w3.org/2000/svg">
<path fill-rule="evenodd" clip-rule="evenodd" d="M8.49998 0.0415039C5.11151 0.0415039 2.36459 2.933 2.36459 6.49984V7.08659C2.36459 7.66734 2.20128 8.23517 1.89524 8.71834L0.985923 10.1541C-0.0694401 11.8205 0.736247 14.0855 2.5718 14.6124C3.16999 14.7842 3.77323 14.9294 4.37997 15.0483L4.38148 15.0525C4.99026 16.7624 6.61738 17.9582 8.49998 17.9582C10.3826 17.9582 12.0097 16.7624 12.6185 15.0525L12.62 15.0483C13.2267 14.9294 13.83 14.7842 14.4282 14.6124C16.2638 14.0855 17.0695 11.8205 16.0141 10.1541L15.1048 8.71834C14.7987 8.23517 14.6354 7.66734 14.6354 7.08659V6.49984C14.6354 2.933 11.8885 0.0415039 8.49998 0.0415039ZM11.173 15.2807C9.39733 15.504 7.60255 15.5039 5.82691 15.2806C6.38974 16.1319 7.36869 16.7082 8.49998 16.7082C9.63119 16.7082 10.6102 16.1319 11.173 15.2807ZM3.55209 6.49984C3.55209 3.62335 5.76735 1.2915 8.49998 1.2915C11.2327 1.2915 13.4479 3.62335 13.4479 6.49984V7.08659C13.4479 7.91417 13.6806 8.72317 14.1167 9.41175L15.026 10.8475C15.6318 11.8039 15.1694 13.104 14.1157 13.4065C10.4391 14.462 6.56095 14.462 2.88424 13.4065C1.83067 13.104 1.36823 11.8039 1.97399 10.8475L2.88329 9.41175C3.31938 8.72317 3.55209 7.91417 3.55209 7.08659V6.49984Z" fill="#1E1E1E"/>
</svg>
