<svg width="32" height="32" viewBox="0 0 32 32" fill="none" xmlns="http://www.w3.org/2000/svg">
<path d="M29.3337 16.2719V18.3C29.3337 23.5011 29.3337 26.1017 27.7715 27.7175C26.2095 29.3333 23.6953 29.3333 18.667 29.3333H13.3337C8.30534 29.3333 5.79119 29.3333 4.22909 27.7175C2.66699 26.1017 2.66699 23.5011 2.66699 18.3V16.2719C2.66699 13.2206 2.66699 11.695 3.35926 10.4303C4.05153 9.1656 5.31626 8.38067 7.8457 6.81083L10.5124 5.15582C13.1862 3.49638 14.5231 2.66666 16.0003 2.66666C17.4775 2.66666 18.8145 3.49638 21.4883 5.15582L24.155 6.81082C26.6845 8.38067 27.9491 9.1656 28.6414 10.4303" stroke="white" stroke-linecap="round"/>
<path d="M20 24H12" stroke="white" stroke-linecap="round"/>
</svg>
