<svg width="16" height="19" viewBox="0 0 16 19" fill="none" xmlns="http://www.w3.org/2000/svg">
<path d="M15.1111 5.95509L9.77779 1.27957C9.28889 0.842281 8.65596 0.600525 8.00003 0.600525C7.34409 0.600525 6.71117 0.842281 6.22226 1.27957L0.888967 5.95509C0.60663 6.2076 0.381326 6.51736 0.228058 6.86375C0.0747893 7.21013 -0.0029267 7.5852 8.42608e-05 7.96397V15.7328C8.42608e-05 16.44 0.281034 17.1183 0.781127 17.6184C1.28122 18.1185 1.95949 18.3994 2.66673 18.3994H13.3333C14.0406 18.3994 14.7188 18.1185 15.2189 17.6184C15.719 17.1183 16 16.44 16 15.7328V7.95508C16.0017 7.5778 15.9234 7.20445 15.7702 6.85969C15.6169 6.51493 15.3923 6.20661 15.1111 5.95509ZM9.77779 16.6217H6.22226V12.1773C6.22226 11.9415 6.31591 11.7154 6.48261 11.5487C6.64931 11.382 6.8754 11.2884 7.11114 11.2884H8.88891C9.12466 11.2884 9.35075 11.382 9.51744 11.5487C9.68414 11.7154 9.77779 11.9415 9.77779 12.1773V16.6217ZM14.2222 15.7328C14.2222 15.9685 14.1286 16.1946 13.9619 16.3613C13.7952 16.528 13.5691 16.6217 13.3333 16.6217H11.5556V12.1773C11.5556 11.47 11.2746 10.7918 10.7745 10.2917C10.2744 9.79157 9.59615 9.51062 8.88891 9.51062H7.11114C6.40391 9.51062 5.72563 9.79157 5.22554 10.2917C4.72545 10.7918 4.4445 11.47 4.4445 12.1773V16.6217H2.66673C2.43099 16.6217 2.2049 16.528 2.0382 16.3613C1.8715 16.1946 1.77785 15.9685 1.77785 15.7328V7.95508C1.77801 7.82887 1.80504 7.70414 1.85715 7.5892C1.90926 7.47425 1.98525 7.37171 2.08007 7.28842L7.41336 2.62178C7.57558 2.47928 7.78411 2.40069 8.00003 2.40069C8.21594 2.40069 8.42448 2.47928 8.58669 2.62178L13.92 7.28842C14.0148 7.37171 14.0908 7.47425 14.1429 7.5892C14.195 7.70414 14.222 7.82887 14.2222 7.95508V15.7328Z" fill="black"/>
</svg>
