<svg width="32" height="32" viewBox="0 0 32 32" fill="none" xmlns="http://www.w3.org/2000/svg">
<path fill-rule="evenodd" clip-rule="evenodd" d="M3.35877 10.4303C2.6665 11.695 2.6665 13.2206 2.6665 16.2719V18.3C2.6665 23.5011 2.6665 26.1017 4.2286 27.7175C5.7907 29.3333 8.30485 29.3333 13.3332 29.3333H18.6665C23.6948 29.3333 26.209 29.3333 27.771 27.7175C29.3332 26.1017 29.3332 23.5011 29.3332 18.3V16.2719C29.3332 13.2206 29.3332 11.695 28.6409 10.4303C27.9486 9.1656 26.684 8.38067 24.1545 6.81082L21.4878 5.15582C18.814 3.49638 17.477 2.66666 15.9998 2.66666C14.5226 2.66666 13.1857 3.49638 10.5119 5.15582L7.84521 6.81083C5.31577 8.38067 4.05104 9.1656 3.35877 10.4303ZM14.9998 24C14.9998 24.5523 15.4476 25 15.9998 25C16.5521 25 16.9998 24.5523 16.9998 24V20C16.9998 19.4477 16.5521 19 15.9998 19C15.4476 19 14.9998 19.4477 14.9998 20V24Z" fill="white"/>
</svg>
