<svg width="20" height="22" viewBox="0 0 20 22" fill="none" xmlns="http://www.w3.org/2000/svg">
<path d="M13.4264 18.3074C12.7482 18.3074 12.1697 18.0677 11.691 17.5882C11.2123 17.1088 10.9726 16.5307 10.9718 15.854C10.9711 15.1774 11.2108 14.5985 11.691 14.1175C12.1713 13.6365 12.7497 13.3971 13.4264 13.3995C14.1031 13.4018 14.6815 13.6415 15.1618 14.1187C15.642 14.5958 15.8813 15.1743 15.8798 15.854C15.8783 16.5338 15.6385 17.1122 15.1606 17.5894C14.6827 18.0665 14.1046 18.3059 13.4264 18.3074ZM2.6732 21.7874C2.1396 21.7874 1.69416 21.6088 1.33688 21.2515C0.979604 20.8942 0.800578 20.4484 0.799805 19.914V5.10083C0.799805 4.56722 0.978831 4.12179 1.33688 3.76451C1.69494 3.40723 2.14076 3.2282 2.67436 3.22743H4.7264V0.640625H5.97572V3.22743H14.2744V0.640625H15.4344V3.22743H17.4864C18.02 3.22743 18.4658 3.40645 18.8239 3.76451C19.1819 4.12256 19.3606 4.56839 19.3598 5.10199V19.914C19.3598 20.4476 19.1812 20.8935 18.8239 21.2515C18.4666 21.6096 18.0204 21.7882 17.4852 21.7874H2.6732ZM2.6732 20.6274H17.4864C17.6643 20.6274 17.8278 20.5532 17.9771 20.4047C18.1263 20.2562 18.2006 20.0923 18.1998 19.9129V9.74199H1.9598V19.914C1.9598 20.0919 2.03404 20.2555 2.18252 20.4047C2.331 20.554 2.49456 20.6282 2.6732 20.6274ZM1.9598 8.58083H18.1998V5.10083C18.1998 4.92296 18.1256 4.7594 17.9771 4.61015C17.8286 4.46089 17.6647 4.38665 17.4852 4.38743H2.67436C2.49572 4.38743 2.33178 4.46167 2.18252 4.61015C2.03327 4.75863 1.95903 4.92257 1.9598 5.10199V8.58083Z" fill="white" fill-opacity="0.5"/>
</svg>
