<svg width="20" height="18" viewBox="0 0 20 18" fill="none" xmlns="http://www.w3.org/2000/svg">
<path fill-rule="evenodd" clip-rule="evenodd" d="M13.391 13.5L14.8499 9.6048L16.3088 13.5H13.391ZM15.7499 7.2H13.9499L9.89991 18H11.6999L12.7088 15.3H16.9838L17.9999 18H19.7999L15.7499 7.2ZM10.6838 11.763L8.39511 9.5031L8.42301 9.4779C9.99171 7.731 11.1059 5.7231 11.7629 3.6H14.3999V1.8H8.09991V0H6.29991V1.8H-9.15527e-05V3.5892H10.0547C9.44991 5.3298 8.49681 6.975 7.19991 8.4168C6.36291 7.488 5.67081 6.4719 5.12181 5.4H3.32181C3.97971 6.8661 4.87971 8.2548 6.00471 9.5031L1.42011 14.0202L2.69991 15.3L7.19991 10.8L9.99801 13.5981L10.6838 11.763Z" fill="#1D1D1B"/>
</svg>
