<svg width="16" height="20" viewBox="0 0 16 20" fill="none" xmlns="http://www.w3.org/2000/svg">
<path fill-rule="evenodd" clip-rule="evenodd" d="M14.3837 8.85661H13.1116V6.24559C13.1116 3.71497 10.9477 1.63253 8.31957 1.63253C5.69097 1.63253 3.52711 3.71497 3.52711 6.24559V8.85661H2.255V6.24559C2.255 3.01946 4.97053 0.408035 8.31957 0.408035C11.6686 0.408035 14.3837 3.01946 14.3837 6.24559V8.85661Z" fill="#545454"/>
<path fill-rule="evenodd" clip-rule="evenodd" d="M2.89127 9.51069C2.51091 9.51069 2.21408 9.79599 2.21408 10.1625V18.0005C2.21408 18.3674 2.51091 18.6527 2.89127 18.6527H13.7479C14.1282 18.6527 14.4246 18.3674 14.4246 18.0005V10.1625C14.4246 9.79599 14.1282 9.51069 13.7479 9.51069H2.89127ZM13.7479 19.9584H2.89127C1.79004 19.9584 0.855469 19.0609 0.855469 18.0005V10.1625C0.855469 9.10252 1.79004 8.20497 2.89127 8.20497H13.7479C14.8487 8.20497 15.7832 9.10252 15.7832 10.1625V18.0005C15.7832 19.1025 14.8487 19.9584 13.7479 19.9584Z" fill="#545454"/>
<path fill-rule="evenodd" clip-rule="evenodd" d="M9.67582 12.1221C9.67582 12.8572 9.08344 13.4278 8.31932 13.4278C7.55564 13.4278 6.96326 12.8572 6.96326 12.1221C6.96326 11.387 7.55564 10.8164 8.31932 10.8164C9.08344 10.8164 9.67582 11.4287 9.67582 12.1221Z" fill="#545454"/>
<path fill-rule="evenodd" clip-rule="evenodd" d="M8.65923 12.1221H7.9795L7.30273 16.0413H9.33641L8.65923 12.1221Z" fill="#545454"/>
</svg>
