<svg width="21" height="18" viewBox="0 0 21 18" fill="none" xmlns="http://www.w3.org/2000/svg">
<path fill-rule="evenodd" clip-rule="evenodd" d="M10.5013 16.7143C9.76327 16.7143 9.16554 16.1389 9.16554 15.4286C9.16554 14.7182 9.76327 14.1429 10.5013 14.1429C11.2392 14.1429 11.837 14.7182 11.837 15.4286C11.837 16.1389 11.2392 16.7143 10.5013 16.7143ZM19.8513 14.7857H13.0785C12.7786 13.6504 11.7168 12.8571 10.5013 12.8571C9.28576 12.8571 8.22386 13.6504 7.924 14.7857H1.15126C0.783266 14.7857 0.483398 15.0744 0.483398 15.4286C0.483398 15.7828 0.783266 16.0714 1.15126 16.0714H7.924C8.22386 17.2067 9.28576 18 10.5013 18C11.7168 18 12.7786 17.2067 13.0785 16.0714H19.8513C20.2192 16.0714 20.5191 15.7828 20.5191 15.4286C20.5191 15.0744 20.2192 14.7857 19.8513 14.7857ZM17.1798 10.2857C16.4418 10.2857 15.8441 9.71036 15.8441 9C15.8441 8.28964 16.4418 7.71429 17.1798 7.71429C17.9178 7.71429 18.5155 8.28964 18.5155 9C18.5155 9.71036 17.9178 10.2857 17.1798 10.2857ZM19.8513 8.35714H19.7571C19.4572 7.22186 18.3953 6.42857 17.1798 6.42857C15.9643 6.42857 14.9024 7.22186 14.6026 8.35714H1.15126C0.783266 8.35714 0.483398 8.64579 0.483398 9C0.483398 9.35421 0.783266 9.64286 1.15126 9.64286H14.6026C14.9024 10.7781 15.9643 11.5714 17.1798 11.5714C18.3953 11.5714 19.4572 10.7781 19.7571 9.64286H19.8513C20.2192 9.64286 20.5191 9.35421 20.5191 9C20.5191 8.64579 20.2192 8.35714 19.8513 8.35714ZM3.82268 1.28571C4.56067 1.28571 5.1584 1.86107 5.1584 2.57143C5.1584 3.28179 4.56067 3.85714 3.82268 3.85714C3.0847 3.85714 2.48697 3.28179 2.48697 2.57143C2.48697 1.86107 3.0847 1.28571 3.82268 1.28571ZM1.15126 3.21429H1.24542C1.54529 4.34957 2.60718 5.14286 3.82268 5.14286C5.03818 5.14286 6.10008 4.34957 6.39994 3.21429H19.8513C20.2192 3.21429 20.5191 2.92564 20.5191 2.57143C20.5191 2.21721 20.2192 1.92857 19.8513 1.92857H6.39994C6.10008 0.793286 5.03818 0 3.82268 0C2.60718 0 1.54529 0.793286 1.24542 1.92857H1.15126C0.783266 1.92857 0.483398 2.21721 0.483398 2.57143C0.483398 2.92564 0.783266 3.21429 1.15126 3.21429Z" fill="#E8F1FF"/>
</svg>
