<svg width="17" height="18" viewBox="0 0 17 18" fill="none" xmlns="http://www.w3.org/2000/svg">
<path fill-rule="evenodd" clip-rule="evenodd" d="M8.50004 0.041626C5.11157 0.041626 2.36466 2.93312 2.36466 6.49996V7.08671C2.36466 7.66746 2.20134 8.23529 1.8953 8.71846L0.985984 10.1542C-0.069379 11.8206 0.736308 14.0856 2.57186 14.6125C3.17005 14.7843 3.77329 14.9295 4.38003 15.0484L4.38154 15.0526C4.99032 16.7625 6.61744 17.9583 8.50004 17.9583C10.3826 17.9583 12.0097 16.7625 12.6185 15.0526L12.62 15.0484C13.2268 14.9295 13.8301 14.7843 14.4283 14.6125C16.2638 14.0856 17.0695 11.8206 16.0141 10.1542L15.1048 8.71846C14.7988 8.23529 14.6355 7.66746 14.6355 7.08671V6.49996C14.6355 2.93312 11.8885 0.041626 8.50004 0.041626ZM11.173 15.2808C9.39739 15.5041 7.60261 15.504 5.82697 15.2807C6.38981 16.132 7.36875 16.7083 8.50004 16.7083C9.63125 16.7083 10.6102 16.132 11.173 15.2808ZM3.55216 6.49996C3.55216 3.62348 5.76741 1.29163 8.50004 1.29163C11.2327 1.29163 13.448 3.62348 13.448 6.49996V7.08671C13.448 7.91429 13.6807 8.72329 14.1168 9.41188L15.0261 10.8476C15.6318 11.804 15.1694 13.1041 14.1158 13.4066C10.4391 14.4621 6.56101 14.4621 2.88431 13.4066C1.83073 13.1041 1.36829 11.804 1.97405 10.8476L2.88336 9.41188C3.31944 8.72329 3.55216 7.91429 3.55216 7.08671V6.49996Z" fill="#1E1E1E"/>
</svg>
