<svg width="32" height="32" viewBox="0 0 32 32" fill="none" xmlns="http://www.w3.org/2000/svg">
<path d="M12.3501 7.40539L12.3543 7.40707C12.4419 7.0341 12.7601 6.75964 13.1584 6.75964H24.5007C24.515 6.75964 24.5293 6.75375 24.5436 6.75459C24.302 2.73106 20.9267 0.866211 17.9489 0.866211H6.60655C6.20748 0.866211 5.88923 1.14825 5.80252 1.52038L5.79831 1.5187L0.840249 24.2825L0.851194 24.2833C0.839407 24.3372 0.818359 24.3886 0.818359 24.4467C0.818359 24.9122 1.1947 25.281 1.66028 25.281H8.4554L12.3501 7.40539Z" fill="#1565C0"/>
<path d="M24.5437 6.75488C24.5883 7.4924 24.5395 8.29475 24.3509 9.18129C23.2724 14.2286 19.3735 16.8554 14.5552 16.8554C14.5552 16.8554 11.6337 16.8554 10.924 16.8554C10.4853 16.8554 10.2782 17.113 10.1831 17.31L8.71816 24.0866L8.46138 25.2897H8.45633L7.39298 30.1695L7.40393 30.1703C7.39214 30.2242 7.37109 30.2756 7.37109 30.3336C7.37109 30.7992 7.74743 31.1756 8.21301 31.1756H14.3868L14.3977 31.1671C14.7951 31.1613 15.1108 30.8775 15.1934 30.5037L15.2085 30.4911L16.7341 23.4055C16.7341 23.4055 16.8401 22.7294 17.5507 22.7294C18.2613 22.7294 21.0683 22.7294 21.0683 22.7294C25.8866 22.7294 29.8251 20.1144 30.9044 15.0663C32.1184 9.37493 28.0587 6.77593 24.5437 6.75488Z" fill="#039BE5"/>
<path d="M13.1588 6.7594C12.7597 6.7594 12.4415 7.03386 12.3548 7.40683L12.3506 7.40515L10.1826 17.3103C10.2778 17.1133 10.4849 16.8557 10.9235 16.8557C11.6341 16.8557 14.489 16.8557 14.489 16.8557C19.3073 16.8557 23.2719 14.2289 24.3504 9.18159C24.5398 8.29505 24.5878 7.49271 24.5432 6.75519C24.5297 6.7535 24.5146 6.7594 24.5011 6.7594H13.1588Z" fill="#283593"/>
</svg>
