<svg width="16" height="20" viewBox="0 0 16 20" fill="none" xmlns="http://www.w3.org/2000/svg">
<path d="M8 19.7801C7.93116 19.78 7.86272 19.7696 7.79697 19.7492C7.18789 19.5599 3.51273 17.6845 1.65794 15.1346C-0.138345 12.6673 -0.100492 7.47456 0.0853308 3.78219C0.0876368 3.73371 0.100173 3.68626 0.122117 3.64297C0.144061 3.59967 0.174915 3.56151 0.212654 3.53099C0.249908 3.50094 0.293021 3.47899 0.339238 3.46655C0.385454 3.4541 0.433759 3.45144 0.481064 3.45872C0.522358 3.45872 4.76531 4.0506 7.75568 1.04991C7.78767 1.01766 7.82573 0.992055 7.86766 0.974585C7.90959 0.957115 7.95457 0.94812 8 0.94812C8.04543 0.94812 8.0904 0.957115 8.13234 0.974585C8.17427 0.992055 8.21233 1.01766 8.24432 1.04991C11.2347 4.05748 15.4708 3.45872 15.5189 3.45872C15.5662 3.45144 15.6145 3.4541 15.6608 3.46655C15.707 3.47899 15.7501 3.50094 15.7873 3.53099C15.8251 3.56151 15.8559 3.59967 15.8779 3.64297C15.8998 3.68626 15.9124 3.73371 15.9147 3.78219C16.1005 7.47456 16.1383 12.6673 14.3421 15.138C12.4735 17.681 8.81211 19.5599 8.20303 19.7492C8.13728 19.7696 8.06884 19.78 8 19.7801ZM0.773563 4.1676C0.608387 7.72576 0.618711 12.5055 2.22917 14.7182C3.98072 17.127 7.51824 18.9267 8.01721 19.0816C8.51617 18.9267 12.0537 17.1201 13.8052 14.7182C15.3985 12.5159 15.4088 7.73608 15.2436 4.1676C14.1115 4.25363 10.7013 4.27084 8.01721 1.75879C5.29869 4.27772 1.88506 4.26395 0.773563 4.1676Z" fill="black"/>
<path d="M7.15001 12.6294C7.10366 12.6292 7.05782 12.6197 7.01524 12.6013C6.97267 12.583 6.93423 12.5563 6.90225 12.5227L5.09908 10.6782C5.06745 10.6459 5.04249 10.6077 5.02563 10.5657C5.00877 10.5238 5.00034 10.4789 5.00082 10.4337C5.0013 10.3885 5.01068 10.3438 5.02842 10.3022C5.04617 10.2606 5.07193 10.2229 5.10424 10.1913C5.13655 10.1597 5.17478 10.1347 5.21674 10.1179C5.25869 10.101 5.30356 10.0926 5.34878 10.093C5.39399 10.0935 5.43867 10.1029 5.48026 10.1207C5.52185 10.1384 5.55954 10.1642 5.59117 10.1965L7.13969 11.7829L10.4088 8.20748C10.4393 8.17404 10.4761 8.14694 10.5171 8.12772C10.558 8.1085 10.6024 8.09753 10.6476 8.09546C10.6928 8.09338 10.738 8.10023 10.7806 8.11561C10.8232 8.131 10.8623 8.15461 10.8957 8.18512C10.9292 8.21562 10.9563 8.25241 10.9755 8.29339C10.9947 8.33437 11.0057 8.37873 11.0077 8.42395C11.0098 8.46916 11.003 8.51434 10.9876 8.55691C10.9722 8.59948 10.9486 8.6386 10.9181 8.67204L7.40466 12.5158C7.34006 12.5846 7.25114 12.6253 7.1569 12.6294H7.15001Z" fill="black"/>
</svg>
