<svg width="30" height="30" viewBox="0 0 30 30" fill="none" xmlns="http://www.w3.org/2000/svg">
<path opacity="0.4" d="M15.2011 13.5875C15.0761 13.575 14.9261 13.575 14.7886 13.5875C11.8137 13.4875 9.45117 11.05 9.45117 8.05C9.45117 4.9875 11.9262 2.5 15.0011 2.5C18.0636 2.5 20.5511 4.9875 20.5511 8.05C20.5386 11.05 18.1761 13.4875 15.2011 13.5875Z" stroke="white" stroke-opacity="0.71" stroke-width="2" stroke-linecap="round" stroke-linejoin="round"/>
<path d="M8.95039 18.2C5.92539 20.225 5.92539 23.525 8.95039 25.5375C12.3879 27.8375 18.0254 27.8375 21.4629 25.5375C24.4879 23.5125 24.4879 20.2125 21.4629 18.2C18.0379 15.9125 12.4004 15.9125 8.95039 18.2Z" stroke="white" stroke-opacity="0.71" stroke-width="2" stroke-linecap="round" stroke-linejoin="round"/>
</svg>
