<svg width="31" height="31" viewBox="0 0 31 31" fill="none" xmlns="http://www.w3.org/2000/svg">
<g clip-path="url(#clip0_35_338)">
<path d="M12.7876 6.02509H7.1626C6.64483 6.02509 6.2251 6.44482 6.2251 6.96259V12.5876C6.2251 13.1054 6.64483 13.5251 7.1626 13.5251H12.7876C13.3054 13.5251 13.7251 13.1054 13.7251 12.5876V6.96259C13.7251 6.44482 13.3054 6.02509 12.7876 6.02509Z" stroke="white" stroke-width="2.175" stroke-linecap="round" stroke-linejoin="round"/>
<path d="M12.7876 17.2751H7.1626C6.64483 17.2751 6.2251 17.6948 6.2251 18.2126V23.8376C6.2251 24.3554 6.64483 24.7751 7.1626 24.7751H12.7876C13.3054 24.7751 13.7251 24.3554 13.7251 23.8376V18.2126C13.7251 17.6948 13.3054 17.2751 12.7876 17.2751Z" stroke="white" stroke-width="2.175" stroke-linecap="round" stroke-linejoin="round"/>
<path d="M24.0376 6.02509H18.4126C17.8948 6.02509 17.4751 6.44482 17.4751 6.96259V12.5876C17.4751 13.1054 17.8948 13.5251 18.4126 13.5251H24.0376C24.5554 13.5251 24.9751 13.1054 24.9751 12.5876V6.96259C24.9751 6.44482 24.5554 6.02509 24.0376 6.02509Z" stroke="white" stroke-width="2.175" stroke-linecap="round" stroke-linejoin="round"/>
<path d="M17.4751 17.2751V21.0251" stroke="white" stroke-width="2.175" stroke-linecap="round" stroke-linejoin="round"/>
<path d="M17.4751 24.7751H21.2251V17.2751" stroke="white" stroke-width="2.175" stroke-linecap="round" stroke-linejoin="round"/>
<path d="M21.2251 19.1501H24.9751" stroke="white" stroke-width="2.175" stroke-linecap="round" stroke-linejoin="round"/>
<path d="M24.9751 22.9001V24.7751" stroke="white" stroke-width="2.175" stroke-linecap="round" stroke-linejoin="round"/>
</g>
<defs>
<clipPath id="clip0_35_338">
<rect width="30" height="30" fill="white" transform="translate(0.600098 0.399994)"/>
</clipPath>
</defs>
</svg>
