<svg width="22" height="20" viewBox="0 0 22 20" fill="none" xmlns="http://www.w3.org/2000/svg">
<path fill-rule="evenodd" clip-rule="evenodd" d="M21.0286 18.6058L17.4569 15.2468L17.3758 15.1258C17.2179 14.9728 17.007 14.8908 16.7837 14.8908C16.5645 14.8908 16.3494 14.9728 16.1957 15.1258C13.16 17.8048 8.48502 17.9498 5.26655 15.4648C2.04807 12.9768 1.28968 8.63277 3.49316 5.30977C5.69665 1.98777 10.1774 0.71977 13.9631 2.34477C17.7498 3.96977 19.6687 7.98377 18.4438 11.7268C18.3586 12.0008 18.4272 12.2938 18.6339 12.5008C18.8376 12.7078 19.1461 12.7938 19.438 12.7308C19.73 12.6688 19.9658 12.4608 20.0551 12.1918C21.5158 7.75077 19.3082 2.96977 14.8607 0.940771C10.4122 -1.08523 5.05565 0.250771 2.26 4.08577C-0.536686 7.92177 0.0637913 13.1018 3.67601 16.2818C7.28303 19.4578 12.8193 19.6758 16.6985 16.7938L19.8598 19.7698C20.185 20.0788 20.7117 20.0788 21.041 19.7698C21.3652 19.4608 21.3652 18.9608 21.041 18.6488L21.0286 18.6058Z" fill="black" fill-opacity="0.5"/>
</svg>
