<svg width="32" height="32" viewBox="0 0 32 32" fill="none" xmlns="http://www.w3.org/2000/svg">
<path d="M27.5003 15.3333C27.5003 22.0528 22.0531 27.5 15.3337 27.5C8.61419 27.5 3.16699 22.0528 3.16699 15.3333C3.16699 8.61385 8.61419 3.16666 15.3337 3.16666C22.0531 3.16666 27.5003 8.61385 27.5003 15.3333Z" stroke="white"/>
<path d="M28.4004 29.3315C28.1604 29.3315 27.9204 29.2381 27.7471 29.0648L25.2671 26.5848C24.9071 26.2248 24.9071 25.6381 25.2671 25.2648C25.6271 24.9048 26.2137 24.9048 26.5871 25.2648L29.0671 27.7448C29.4271 28.1048 29.4271 28.6915 29.0671 29.0648C28.8804 29.2381 28.6404 29.3315 28.4004 29.3315Z" fill="white"/>
</svg>
