<svg width="32" height="32" viewBox="0 0 32 32" fill="none" xmlns="http://www.w3.org/2000/svg">
<path d="M15.3332 28C22.3288 28 27.9998 22.3289 27.9998 15.3333C27.9998 8.33771 22.3288 2.66666 15.3332 2.66666C8.33756 2.66666 2.6665 8.33771 2.6665 15.3333C2.6665 22.3289 8.33756 28 15.3332 28Z" fill="white"/>
<path d="M28.4009 29.3315C28.1609 29.3315 27.9209 29.2381 27.7476 29.0648L25.2676 26.5848C24.9076 26.2248 24.9076 25.6381 25.2676 25.2648C25.6276 24.9048 26.2142 24.9048 26.5876 25.2648L29.0676 27.7448C29.4276 28.1048 29.4276 28.6915 29.0676 29.0648C28.8809 29.2381 28.6409 29.3315 28.4009 29.3315Z" fill="white"/>
</svg>
