<svg width="22" height="20" viewBox="0 0 22 20" fill="none" xmlns="http://www.w3.org/2000/svg">
<path fill-rule="evenodd" clip-rule="evenodd" d="M21.0288 18.6058L17.4571 15.2468L17.3761 15.1258C17.2182 14.9728 17.0073 14.8908 16.7839 14.8908C16.5647 14.8908 16.3497 14.9728 16.1959 15.1258C13.1603 17.8048 8.48527 17.9498 5.26679 15.4648C2.04831 12.9768 1.28992 8.63277 3.49341 5.30977C5.69689 1.98777 10.1776 0.71977 13.9633 2.34477C17.7501 3.96977 19.6689 7.98377 18.4441 11.7268C18.3589 12.0008 18.4274 12.2938 18.6342 12.5008C18.8378 12.7078 19.1463 12.7938 19.4383 12.7308C19.7302 12.6688 19.966 12.4608 20.0554 12.1918C21.5161 7.75077 19.3084 2.96977 14.8609 0.940771C10.4124 -1.08523 5.0559 0.250771 2.26025 4.08577C-0.536442 7.92177 0.0640355 13.1018 3.67625 16.2818C7.28327 19.4578 12.8195 19.6758 16.6987 16.7938L19.8601 19.7698C20.1852 20.0788 20.712 20.0788 21.0413 19.7698C21.3654 19.4608 21.3654 18.9608 21.0413 18.6488L21.0288 18.6058Z" fill="black"/>
</svg>
