<svg width="43" height="46" viewBox="0 0 43 46" fill="none" xmlns="http://www.w3.org/2000/svg">
<g clip-path="url(#clip0_89_1347)">
<path d="M24.9016 12.9819H24.8616C24.4906 12.9819 24.2097 13.3038 24.2097 13.7007C24.2097 14.0976 24.5305 14.4194 24.9016 14.4194C25.2727 14.4194 25.5735 14.0976 25.5735 13.7007C25.5735 13.3038 25.2726 12.9819 24.9016 12.9819Z" fill="white"/>
<path d="M30.3544 12.9819H30.317C29.946 12.9819 29.6638 13.3038 29.6638 13.7007C29.6638 14.0976 29.9834 14.4194 30.3544 14.4194C30.7254 14.4194 31.0262 14.0976 31.0262 13.7007C31.0262 13.3038 30.7255 12.9819 30.3544 12.9819Z" fill="white"/>
<path d="M35.8098 12.9819H35.7698C35.3988 12.9819 35.1179 13.3038 35.1179 13.7007C35.1179 14.0976 35.4387 14.4194 35.8098 14.4194C36.1809 14.4194 36.4817 14.0976 36.4817 13.7007C36.4817 13.3038 36.1809 12.9819 35.8098 12.9819Z" fill="white"/>
<path d="M30.3655 33.0098C26.9061 30.9227 25.87 31.0933 23.2321 32.6887C21.8785 33.651 20.2487 33.0642 17.4161 30.5963C16.8601 30.1117 16.3013 29.5712 15.7574 28.9921C15.2138 28.4081 14.7089 27.8105 14.2561 27.2152C12.1208 24.4122 11.5394 21.8541 12.233 21.0831C14.2768 18.732 13.813 16.8015 12.0089 13.38C10.9224 11.1813 9.72919 8.99277 8.14108 8.49058C6.98955 8.12876 5.2797 9.07665 4.77055 9.43818C3.46093 10.3713 2.21722 12.0219 1.52465 13.7462C0.250779 16.9184 0.588665 20.7417 1.32981 23.2622C2.54725 27.3943 5.4693 32.1792 9.14694 36.0621C12.778 39.9981 17.2508 43.1233 21.1118 44.4221C22.3315 44.8338 23.8777 45.1297 25.498 45.1297C27.0054 45.1297 28.5772 44.8735 30.0079 44.2161C31.6196 43.4739 33.1615 42.1434 34.0316 40.7441C34.3701 40.2012 35.2595 38.3724 34.9174 37.1353C34.4506 35.4394 32.4048 34.1627 30.3655 33.0098ZM29.7215 34.2714C30.9659 34.9751 33.2823 36.2852 33.6284 37.5427C33.6993 37.7988 33.6131 38.2657 33.4538 38.7509L24.3639 33.6557C26.0736 32.643 26.7659 32.4881 29.7215 34.2714ZM7.76093 9.86936C8.93832 10.2417 10.163 12.7201 10.8297 14.0689C12.5908 17.4089 12.5853 18.4629 11.4527 19.8605L6.54934 10.088C6.9229 9.94023 7.29169 9.84276 7.55648 9.84276C7.63462 9.84269 7.70349 9.85117 7.76093 9.86936ZM29.4771 42.8954C26.845 44.1055 23.5437 43.7359 21.5153 43.0509C17.8524 41.8187 13.585 38.8271 10.1003 35.0492C10.098 35.0467 10.0961 35.0447 10.0937 35.0421C6.56378 31.3157 3.76643 26.7502 2.61161 22.8304C1.97353 20.6602 1.6294 17.1274 2.75956 14.3132C3.32669 12.9012 4.31314 11.561 5.35965 10.7568L10.6829 21.3668C10.3898 23.0726 11.3003 25.6102 13.2143 28.1232C13.6949 28.7549 14.2303 29.3887 14.8074 30.0084C15.3848 30.6237 15.9769 31.1964 16.5674 31.7109C18.6421 33.5188 20.8206 35.036 22.8606 34.4361L32.852 40.0366C32.108 41.1844 30.8271 42.2739 29.4771 42.8954Z" fill="white"/>
<path d="M40.9541 7.74149C37.8831 1.47981 30.621 -0.942089 24.7654 2.34066C18.9121 5.627 16.6472 13.3963 19.7168 19.6594C19.9393 20.1132 20.1932 20.5614 20.4743 20.9973L18.6594 24.325C18.5328 24.557 18.5377 24.8454 18.6725 25.0722C18.8067 25.2993 19.0485 25.4253 19.2988 25.4031L24.5058 24.9107C26.3263 25.9937 28.3287 26.537 30.3342 26.537C32.2406 26.537 34.1496 26.0457 35.9061 25.0598C41.7598 21.7739 44.0244 14.005 40.9541 7.74149ZM35.2818 23.787C32.0251 25.6148 28.1786 25.5274 24.9918 23.5533C24.8895 23.4897 24.773 23.4564 24.6552 23.4564C24.6355 23.4564 24.6158 23.4575 24.5961 23.4592L20.475 23.8487L21.8545 21.3195C21.99 21.0706 21.9739 20.7593 21.8132 20.5284C21.4684 20.0325 21.1636 19.5155 20.9071 18.9919C18.1812 13.4308 20.1919 6.53212 25.3898 3.61356C30.5886 0.696805 37.0366 2.84953 39.7642 8.40935C42.4904 13.9709 40.4793 20.8692 35.2818 23.787Z" fill="white"/>
</g>
<defs>
<clipPath id="clip0_89_1347">
<rect width="43" height="46" fill="white"/>
</clipPath>
</defs>
</svg>
