<svg width="23" height="24" viewBox="0 0 23 24" fill="none" xmlns="http://www.w3.org/2000/svg">
<path d="M6.44954 19.7C7.23538 18.82 8.43329 18.89 9.12329 19.85L10.0912 21.2C10.8675 22.27 12.1229 22.27 12.8991 21.2L13.867 19.85C14.557 18.89 15.755 18.82 16.5408 19.7C18.2466 21.6 19.6362 20.97 19.6362 18.31V7.04C19.6458 3.01 18.745 2 15.1225 2H7.87746C4.25496 2 3.35413 3.01 3.35413 7.04V18.3C3.35413 20.97 4.75329 21.59 6.44954 19.7Z" stroke="white" stroke-width="2" stroke-linecap="round" stroke-linejoin="round"/>
<path d="M8.625 13L14.375 7" stroke="white" stroke-width="2" stroke-linecap="round" stroke-linejoin="round"/>
<path d="M14.3698 13H14.3788" stroke="white" stroke-width="2" stroke-linecap="round" stroke-linejoin="round"/>
<path d="M8.61975 7.5H8.62873" stroke="white" stroke-width="2" stroke-linecap="round" stroke-linejoin="round"/>
</svg>
