<svg width="24" height="24" viewBox="0 0 24 24" fill="none" xmlns="http://www.w3.org/2000/svg">
<path d="M12.1542 10.9127C12.058 10.9031 11.9425 10.9031 11.8367 10.9127C9.5466 10.8357 7.72803 8.95944 7.72803 6.65014C7.72803 4.29273 9.6332 2.37793 12.0002 2.37793C14.3576 2.37793 16.2724 4.29273 16.2724 6.65014C16.2628 8.95944 14.4442 10.8357 12.1542 10.9127Z" stroke="white" stroke-opacity="0.17" stroke-width="1.44331" stroke-linecap="round" stroke-linejoin="round"/>
<path d="M7.34309 14.4632C5.01454 16.022 5.01454 18.5622 7.34309 20.1114C9.98917 21.8818 14.3287 21.8818 16.9748 20.1114C19.3034 18.5526 19.3034 16.0124 16.9748 14.4632C14.3384 12.7024 9.99879 12.7024 7.34309 14.4632Z" stroke="white" stroke-opacity="0.17" stroke-width="1.44331" stroke-linecap="round" stroke-linejoin="round"/>
</svg>
