<svg width="20" height="19" viewBox="0 0 20 19" fill="none" xmlns="http://www.w3.org/2000/svg">
<g clip-path="url(#clip0_89_1564)">
<path d="M1.66663 9.33355C1.66663 6.40036 1.66663 4.93378 2.64293 4.02255C3.61925 3.11133 5.19059 3.11133 8.33329 3.11133H11.6666C14.8093 3.11133 16.3807 3.11133 17.357 4.02255C18.3333 4.93378 18.3333 6.40036 18.3333 9.33355V10.8891C18.3333 13.8223 18.3333 15.2889 17.357 16.2001C16.3807 17.1113 14.8093 17.1113 11.6666 17.1113H8.33329C5.19059 17.1113 3.61925 17.1113 2.64293 16.2001C1.66663 15.2889 1.66663 13.8223 1.66663 10.8891V9.33355Z" stroke="white" stroke-opacity="0.17" stroke-width="2"/>
<path opacity="0.5" d="M5.83337 3.111V1.94434" stroke="white" stroke-opacity="0.17" stroke-width="2" stroke-linecap="round"/>
<path opacity="0.5" d="M14.1666 3.111V1.94434" stroke="white" stroke-opacity="0.17" stroke-width="2" stroke-linecap="round"/>
<path opacity="0.5" d="M1.66663 7H18.3333" stroke="white" stroke-opacity="0.17" stroke-width="2" stroke-linecap="round"/>
</g>
<defs>
<clipPath id="clip0_89_1564">
<rect width="20" height="18.6667" fill="white"/>
</clipPath>
</defs>
</svg>
