<svg width="53" height="73" viewBox="0 0 53 73" fill="none" xmlns="http://www.w3.org/2000/svg">
<path d="M2.056 46.4475C2.056 44.6129 2.42933 43.0129 3.176 41.6475C3.92267 40.2609 4.95733 39.1942 6.28 38.4475C7.60267 37.6795 9.11733 37.2955 10.824 37.2955C13.0213 37.2955 14.8347 37.8502 16.264 38.9595C17.7147 40.0475 18.6853 41.5835 19.176 43.5675H14.344C14.088 42.7995 13.6507 42.2022 13.032 41.7755C12.4347 41.3275 11.688 41.1035 10.792 41.1035C9.512 41.1035 8.49867 41.5729 7.752 42.5115C7.00533 43.4289 6.632 44.7409 6.632 46.4475C6.632 48.1329 7.00533 49.4449 7.752 50.3835C8.49867 51.3009 9.512 51.7595 10.792 51.7595C12.6053 51.7595 13.7893 50.9489 14.344 49.3275H19.176C18.6853 51.2475 17.7147 52.7729 16.264 53.9035C14.8133 55.0342 13 55.5995 10.824 55.5995C9.11733 55.5995 7.60267 55.2262 6.28 54.4795C4.95733 53.7115 3.92267 52.6449 3.176 51.2795C2.42933 49.8929 2.056 48.2822 2.056 46.4475Z" fill="#0B19B7"/>
<path d="M20 37.3115H32L30.5 56.3115H21.5L20 37.3115Z" fill="#0B19B7"/>
<rect x="22" y="41.3115" width="8" height="12" rx="4" fill="#0B19B7"/>
<circle cx="25.5" cy="51.8115" r="0.5" fill="#0B19B7"/>
<circle cx="24.5" cy="49.8115" r="0.5" fill="#0B19B7"/>
<circle cx="23.5" cy="46.8115" r="0.5" fill="#0B19B7"/>
<circle cx="25.5" cy="43.8115" r="0.5" fill="#0B19B7"/>
<circle cx="28.5" cy="45.8115" r="0.5" fill="#0B19B7"/>
<circle cx="25.5" cy="47.8115" r="0.5" fill="#0B19B7"/>
<circle cx="28.5" cy="49.8115" r="0.5" fill="#0B19B7"/>
<circle cx="27.5" cy="47.8115" r="0.5" fill="#0B19B7"/>
<path d="M47.45 43.2615C47.45 44.1949 47.225 45.0699 46.775 45.8865C46.3417 46.7032 45.65 47.3615 44.7 47.8615C43.7667 48.3615 42.5833 48.6115 41.15 48.6115H38.225V55.3115H34.725V37.8615H41.15C42.5 37.8615 43.65 38.0949 44.6 38.5615C45.55 39.0282 46.2583 39.6699 46.725 40.4865C47.2083 41.3032 47.45 42.2282 47.45 43.2615ZM41 45.7865C41.9667 45.7865 42.6833 45.5699 43.15 45.1365C43.6167 44.6865 43.85 44.0615 43.85 43.2615C43.85 41.5615 42.9 40.7115 41 40.7115H38.225V45.7865H41Z" fill="#0B19B7"/>
<path d="M6 58.3115H45.5L41.5 72.3115H11.5L6 58.3115Z" fill="#0B19B7"/>
<path d="M1 18.3115L12.5 20.3115L22.3708 21.0708C24.4537 21.231 26.546 21.2278 28.6285 21.0612L38 20.3115L50 18.3115L46 32.3115H4L1 18.3115Z" fill="#0B19B7"/>
<path d="M1 13.3115L5.98015 14.3076C19.1905 16.9496 32.7984 16.8952 45.9872 14.1475L50 13.3115V16.3115L44.06 17.4253C32.12 19.664 19.8719 19.7085 7.91588 17.5564L1 16.3115V13.3115Z" fill="#0B19B7"/>
<path d="M0 10.3115L25.7525 10.9115L51 10.3115L49.4852 12.1115L25.7525 13.3115L2.0198 12.1115L0 10.3115Z" fill="#0B19B7"/>
<path d="M37 2.31149L35.8293 3.04167C34.5474 3.84125 33.4157 4.85944 32.4856 6.05C31.831 6.88781 31.0755 7.64163 30.2363 8.29436L27 10.8115L28.5 7.81149C30.4172 4.9357 33.4205 2.9623 36.821 2.34403L37 2.31149Z" fill="#0B19B7"/>
</svg>
