<svg width="24" height="24" viewBox="0 0 24 24" fill="none" xmlns="http://www.w3.org/2000/svg">
<path d="M12.1539 10.9127C12.0577 10.9031 11.9423 10.9031 11.8364 10.9127C9.54636 10.8357 7.72778 8.95944 7.72778 6.65014C7.72778 4.29273 9.63296 2.37793 12 2.37793C14.3574 2.37793 16.2722 4.29273 16.2722 6.65014C16.2626 8.95944 14.444 10.8357 12.1539 10.9127Z" stroke="white" stroke-width="1.44331" stroke-linecap="round" stroke-linejoin="round"/>
<path d="M7.34285 14.4632C5.0143 16.022 5.0143 18.5622 7.34285 20.1114C9.98892 21.8818 14.3285 21.8818 16.9746 20.1114C19.3031 18.5526 19.3031 16.0124 16.9746 14.4632C14.3381 12.7024 9.99854 12.7024 7.34285 14.4632Z" stroke="white" stroke-width="1.44331" stroke-linecap="round" stroke-linejoin="round"/>
</svg>
