<svg width="20" height="19" viewBox="0 0 20 19" fill="none" xmlns="http://www.w3.org/2000/svg">
<g clip-path="url(#clip0_86_566)">
<path d="M1.6665 9.33355C1.6665 6.40036 1.6665 4.93378 2.64281 4.02255C3.61913 3.11133 5.19047 3.11133 8.33317 3.11133H11.6665C14.8092 3.11133 16.3806 3.11133 17.3568 4.02255C18.3332 4.93378 18.3332 6.40036 18.3332 9.33355V10.8891C18.3332 13.8223 18.3332 15.2889 17.3568 16.2001C16.3806 17.1113 14.8092 17.1113 11.6665 17.1113H8.33317C5.19047 17.1113 3.61913 17.1113 2.64281 16.2001C1.6665 15.2889 1.6665 13.8223 1.6665 10.8891V9.33355Z" stroke="white" stroke-width="2"/>
<path opacity="0.5" d="M5.8335 3.111V1.94434" stroke="white" stroke-width="2" stroke-linecap="round"/>
<path opacity="0.5" d="M14.1665 3.111V1.94434" stroke="white" stroke-width="2" stroke-linecap="round"/>
<path opacity="0.5" d="M1.6665 7H18.3332" stroke="white" stroke-width="2" stroke-linecap="round"/>
</g>
<defs>
<clipPath id="clip0_86_566">
<rect width="20" height="18.6667" fill="white"/>
</clipPath>
</defs>
</svg>
