<svg width="19" height="19" viewBox="0 0 19 19" fill="none" xmlns="http://www.w3.org/2000/svg">
<ellipse cx="2.46358" cy="2.46358" rx="2.46358" ry="2.46358" transform="matrix(-1 0 0 1 11.7678 6.69653)" stroke="black" stroke-width="1.5"/>
<path d="M12.9996 14.9594L12.6246 14.3099H12.6246L12.9996 14.9594ZM5.60889 14.9594L5.98389 14.3099L5.60889 14.9594ZM5.60889 3.36038L5.23389 2.71086L5.23389 2.71086L5.60889 3.36038ZM3.91033 3.64585L3.76792 4.3822L3.91033 3.64585ZM1.92498 10.986L2.42864 11.5417L1.92498 10.986ZM11.8557 16.4408L11.1325 16.2423L11.8557 16.4408ZM11.2274 17.1456L11.4024 17.8749L11.2274 17.1456ZM15.6077 14.4236L16.1832 14.9046L15.6077 14.4236ZM14.6983 14.674L14.5559 15.4103L14.6983 14.674ZM3.91019 14.674L4.05265 15.4103L3.91019 14.674ZM3.00073 14.4236L2.4253 14.9046L3.00073 14.4236ZM1.92498 7.33411L1.42132 7.88984L1.92498 7.33411ZM17.5153 9.03681L16.7653 9.04785L17.5153 9.03681ZM7.38115 17.1456L7.55614 16.4163L7.38115 17.1456ZM6.7528 16.4408L7.47605 16.2423L6.7528 16.4408ZM11.8558 1.87923L11.1326 2.0778L11.8558 1.87923ZM11.2275 1.17459L11.0525 1.90388L11.2275 1.17459ZM11.1326 2.0778C11.3483 2.8634 11.8626 3.5699 12.6247 4.00989L13.3747 2.71086C12.968 2.47605 12.6945 2.10119 12.5791 1.68065L11.1326 2.0778ZM13.339 5.87528C13.339 5.45565 13.4889 5.07297 13.7389 4.77496L12.5896 3.81096C12.1215 4.36901 11.839 5.09013 11.839 5.87528H13.339ZM15.0526 7.58886C14.1062 7.58886 13.339 6.82167 13.339 5.87528H11.839C11.839 7.65009 13.2778 9.08886 15.0526 9.08886V7.58886ZM15.4922 7.53214C15.3527 7.56901 15.2055 7.58886 15.0526 7.58886V9.08886C15.336 9.08886 15.612 9.05198 15.8755 8.98234L15.4922 7.53214ZM18.2662 9.16006C18.2662 9.11523 18.2658 9.07047 18.2652 9.02578L16.7653 9.04785C16.7659 9.08518 16.7662 9.12258 16.7662 9.16006H18.2662ZM16.1832 14.9046C17.4831 13.3495 18.2662 11.3452 18.2662 9.16006H16.7662C16.7662 10.9807 16.1151 12.6472 15.0323 13.9426L16.1832 14.9046ZM13.3746 15.609C13.747 15.394 14.1645 15.3346 14.5559 15.4103L14.8407 13.9376C14.1083 13.7959 13.3215 13.9076 12.6246 14.3099L13.3746 15.609ZM12.579 16.6393C12.6944 16.2187 12.9679 15.8438 13.3746 15.609L12.6246 14.3099C11.8625 14.75 11.3481 15.4566 11.1325 16.2423L12.579 16.6393ZM9.30423 18.122C10.0259 18.122 10.7286 18.0365 11.4024 17.8749L11.0524 16.4163C10.4924 16.5506 9.90714 16.622 9.30423 16.622V18.122ZM7.20615 17.8749C7.87991 18.0365 8.58259 18.122 9.30423 18.122V16.622C8.70135 16.622 8.11612 16.5506 7.55614 16.4163L7.20615 17.8749ZM5.23389 15.609C5.64063 15.8438 5.9141 16.2187 6.02954 16.6393L7.47605 16.2423C7.2604 15.4566 6.74609 14.75 5.98389 14.3099L5.23389 15.609ZM4.05265 15.4103C4.44403 15.3346 4.86157 15.394 5.23389 15.609L5.98389 14.3099C5.28704 13.9076 4.50022 13.7959 3.76774 13.9377L4.05265 15.4103ZM0.883915 12.2349C1.24266 13.2171 1.768 14.1183 2.4253 14.9046L3.57616 13.9426C3.02827 13.2872 2.59111 12.5368 2.29287 11.7203L0.883915 12.2349ZM1.9847 9.16006C1.9847 9.66366 1.76842 10.1157 1.42132 10.4303L2.42864 11.5417C3.07623 10.9548 3.4847 10.1046 3.4847 9.16006H1.9847ZM1.42132 7.88984C1.76842 8.20441 1.9847 8.65645 1.9847 9.16006H3.4847C3.4847 8.2155 3.07623 7.36531 2.42864 6.77839L1.42132 7.88984ZM2.42554 3.41519C1.76813 4.20157 1.2427 5.10294 0.883915 6.08521L2.29287 6.59985C2.59115 5.78321 3.02837 5.03277 3.57637 4.37727L2.42554 3.41519ZM5.23389 2.71086C4.8616 2.9258 4.4441 2.98518 4.05275 2.90949L3.76792 4.3822C4.50035 4.52386 5.2871 4.41219 5.98389 4.00989L5.23389 2.71086ZM6.02951 1.68063C5.91404 2.10119 5.64059 2.47605 5.23389 2.71086L5.98389 4.0099C6.746 3.56989 7.26028 2.86339 7.47598 2.07778L6.02951 1.68063ZM9.30423 0.19812C8.58256 0.19812 7.87985 0.283573 7.20607 0.445253L7.55607 1.90385C8.11608 1.76947 8.70132 1.69812 9.30423 1.69812V0.19812ZM11.4025 0.445292C10.7287 0.283588 10.026 0.19812 9.30423 0.19812V1.69812C9.90718 1.69812 10.4925 1.76948 11.0525 1.90388L11.4025 0.445292ZM7.47598 2.07778C7.49775 1.99848 7.52918 1.94367 7.55309 1.91503C7.57363 1.89042 7.57542 1.8992 7.55607 1.90385L7.20607 0.445253C6.50336 0.613874 6.15578 1.22073 6.02951 1.68063L7.47598 2.07778ZM3.57637 4.37727C3.5638 4.39231 3.55697 4.38674 3.58817 4.37922C3.62443 4.37049 3.68738 4.36663 3.76792 4.3822L4.05275 2.90949C3.58462 2.81896 2.88811 2.86187 2.42554 3.41519L3.57637 4.37727ZM2.29287 11.7203C2.30063 11.7415 2.28957 11.746 2.30311 11.7105C2.31914 11.6684 2.35924 11.6046 2.42864 11.5417L1.42132 10.4303C1.03178 10.7833 0.603194 11.4663 0.883915 12.2349L2.29287 11.7203ZM11.1325 16.2423C11.1107 16.3216 11.0793 16.3764 11.0554 16.4051C11.0348 16.4297 11.033 16.4209 11.0524 16.4163L11.4024 17.8749C12.1052 17.7062 12.4528 17.0993 12.579 16.6393L11.1325 16.2423ZM15.0323 13.9426C15.0449 13.9275 15.0517 13.9331 15.0205 13.9406C14.9842 13.9494 14.9213 13.9532 14.8407 13.9376L14.5559 15.4103C15.024 15.5009 15.7206 15.458 16.1832 14.9046L15.0323 13.9426ZM3.76774 13.9377C3.68719 13.9532 3.62423 13.9494 3.58796 13.9406C3.55676 13.9331 3.56359 13.9276 3.57616 13.9426L2.4253 14.9046C2.88789 15.458 3.58449 15.5009 4.05265 15.4103L3.76774 13.9377ZM12.6247 4.00989C12.537 3.95926 12.5067 3.9026 12.5059 3.90118C12.5026 3.89526 12.5083 3.90469 12.5123 3.92721C12.5163 3.94973 12.5141 3.96054 12.5152 3.95384C12.5154 3.95222 12.5245 3.88858 12.5896 3.81096L13.7389 4.77496C14.0426 4.41291 14.0387 3.94561 13.9895 3.66653C13.9402 3.38744 13.7839 2.94711 13.3747 2.71086L12.6247 4.00989ZM2.42864 6.77839C2.35924 6.71549 2.31914 6.65174 2.30311 6.60962C2.28957 6.57407 2.30063 6.57859 2.29287 6.59985L0.883915 6.08521C0.603194 6.85377 1.03178 7.53679 1.42132 7.88984L2.42864 6.77839ZM15.8755 8.98234C16.0834 8.92738 16.3867 8.93478 16.6147 9.01344C16.7239 9.05114 16.7717 9.09018 16.7833 9.10222C16.7835 9.10238 16.7658 9.07659 16.7653 9.04785L18.2652 9.02578C18.2529 8.19269 17.5938 7.76453 17.104 7.59549C16.5948 7.41977 15.9877 7.40117 15.4922 7.53214L15.8755 8.98234ZM7.55614 16.4163C7.57549 16.4209 7.5737 16.4297 7.55316 16.4051C7.52925 16.3765 7.49782 16.3216 7.47605 16.2423L6.02954 16.6393C6.15578 17.0993 6.50337 17.7062 7.20615 17.8749L7.55614 16.4163ZM12.5791 1.68065C12.4528 1.22076 12.1052 0.613922 11.4025 0.445292L11.0525 1.90388C11.0332 1.89924 11.035 1.89046 11.0555 1.91506C11.0794 1.9437 11.1108 1.99851 11.1326 2.0778L12.5791 1.68065Z" fill="black"/>
</svg>
