<svg width="18" height="17" viewBox="0 0 18 17" fill="none" xmlns="http://www.w3.org/2000/svg">
<path d="M17.9084 0.0681402C17.8282 -0.00357542 17.7142 -0.0202139 17.6176 0.0255282L0.155693 8.30478C0.0616842 8.34937 0.00114611 8.44508 1.60703e-05 8.55085C-0.00111397 8.65661 0.057433 8.75364 0.150527 8.80026L5.09221 11.2751C5.18283 11.3205 5.29088 11.3102 5.37181 11.2485L10.1765 7.58395L6.40462 11.5431C6.35081 11.5996 6.32336 11.677 6.32928 11.7555L6.70483 16.7465C6.71317 16.8571 6.78582 16.9516 6.88909 16.9863C6.91669 16.9955 6.94505 17 6.97308 17C7.04998 17 7.12478 16.9663 7.17682 16.9048L9.7997 13.8033L13.0421 15.3842C13.1125 15.4185 13.194 15.42 13.2655 15.3882C13.337 15.3564 13.3915 15.2946 13.4148 15.2187L17.9876 0.356815C18.0196 0.25303 17.9884 0.139856 17.9084 0.0681402Z" fill="black"/>
</svg>
