<svg width="25" height="27" viewBox="0 0 25 27" fill="none" xmlns="http://www.w3.org/2000/svg">
<path d="M17.1874 11.5769V5.80769C17.1874 4.53261 16.6809 3.30976 15.7793 2.40814C14.8777 1.50652 13.6548 1 12.3798 1C11.1047 1 9.88182 1.50652 8.9802 2.40814C8.07858 3.30976 7.57206 4.53261 7.57206 5.80769V11.5769M22.131 9.0218L23.7503 24.4064C23.84 25.259 23.1733 26 22.3156 26H2.44385C2.24156 26.0002 2.04147 25.9579 1.85661 25.8757C1.67174 25.7936 1.50622 25.6735 1.37081 25.5232C1.23539 25.3729 1.1331 25.1958 1.07059 25.0034C1.00808 24.811 0.986737 24.6076 1.00796 24.4064L2.62847 9.0218C2.66585 8.66738 2.83312 8.33936 3.09802 8.10097C3.36293 7.86258 3.70671 7.7307 4.06308 7.73077H20.6964C21.4349 7.73077 22.0541 8.28846 22.131 9.0218ZM8.05283 11.5769C8.05283 11.7044 8.00218 11.8267 7.91201 11.9169C7.82185 12.007 7.69957 12.0577 7.57206 12.0577C7.44455 12.0577 7.32227 12.007 7.2321 11.9169C7.14194 11.8267 7.09129 11.7044 7.09129 11.5769C7.09129 11.4494 7.14194 11.3271 7.2321 11.237C7.32227 11.1468 7.44455 11.0962 7.57206 11.0962C7.69957 11.0962 7.82185 11.1468 7.91201 11.237C8.00218 11.3271 8.05283 11.4494 8.05283 11.5769ZM17.6682 11.5769C17.6682 11.7044 17.6176 11.8267 17.5274 11.9169C17.4372 12.007 17.315 12.0577 17.1874 12.0577C17.0599 12.0577 16.9376 12.007 16.8475 11.9169C16.7573 11.8267 16.7067 11.7044 16.7067 11.5769C16.7067 11.4494 16.7573 11.3271 16.8475 11.237C16.9376 11.1468 17.0599 11.0962 17.1874 11.0962C17.315 11.0962 17.4372 11.1468 17.5274 11.237C17.6176 11.3271 17.6682 11.4494 17.6682 11.5769Z" stroke="#323232" stroke-width="1.92308" stroke-linecap="round" stroke-linejoin="round"/>
</svg>
