<svg width="18" height="19" viewBox="0 0 18 19" fill="none" xmlns="http://www.w3.org/2000/svg">
<rect width="18" height="19" fill="#F5F5F5"/>
<path d="M-1616 -2221C-1616 -2222.1 -1615.1 -2223 -1614 -2223H10062C10063.1 -2223 10064 -2222.1 10064 -2221V5767C10064 5768.1 10063.1 5769 10062 5769H-1614C-1615.1 5769 -1616 5768.1 -1616 5767V-2221Z" fill="#A3A3A3"/>
<path d="M-1614 -2222H10062V-2224H-1614V-2222ZM10063 -2221V5767H10065V-2221H10063ZM10062 5768H-1614V5770H10062V5768ZM-1615 5767V-2221H-1617V5767H-1615ZM-1614 5768C-1614.55 5768 -1615 5767.55 -1615 5767H-1617C-1617 5768.66 -1615.66 5770 -1614 5770V5768ZM10063 5767C10063 5767.55 10062.6 5768 10062 5768V5770C10063.7 5770 10065 5768.66 10065 5767H10063ZM10062 -2222C10062.6 -2222 10063 -2221.55 10063 -2221H10065C10065 -2222.66 10063.7 -2224 10062 -2224V-2222ZM-1614 -2224C-1615.66 -2224 -1617 -2222.66 -1617 -2221H-1615C-1615 -2221.55 -1614.55 -2222 -1614 -2222V-2224Z" fill="black" fill-opacity="0.1"/>
<g clip-path="url(#clip0_0_1)">
<rect width="430" height="932" transform="translate(-282 -849)" fill="white"/>
<line x1="-247.031" y1="7.7666" x2="121.116" y2="7.7666" stroke="#E9ECEF" stroke-dasharray="4 4"/>
<path fill-rule="evenodd" clip-rule="evenodd" d="M23.6608 -47.3026C22.2515 -52.0005 15.5066 -51.7196 14.4928 -46.9208L10.5587 -28.2994C10.4396 -27.7361 10.2526 -27.1894 10.0016 -26.6713L-0.819122 -4.33165C-3.72676 1.67122 -12.5571 0.718075 -14.1168 -5.76701L-20.5539 -32.5318C-21.0077 -34.4186 -22.5669 -35.8375 -24.4881 -36.112L-34.8089 -37.5864C-35.9791 -37.7535 -37.1694 -37.477 -38.146 -36.8111L-46.4857 -31.125C-48.5568 -29.7129 -51.2189 -29.497 -53.4904 -30.5571L-54.3251 -30.9466C-56.5749 -31.9965 -59.2536 -31.1304 -60.4629 -28.9621L-72.1088 -8.07982C-73.9975 -4.69324 -78.2533 -3.44737 -81.6701 -5.28078L-96.1489 -13.0499C-98.2711 -14.1887 -100.91 -13.553 -102.281 -11.5728L-113.967 5.30653C-114.961 6.7429 -116.45 7.7624 -118.149 8.1701L-127.552 10.427C-129.142 10.8085 -130.423 11.9831 -130.939 13.5339L-134.852 25.2712C-136.853 31.2742 -145.113 31.8612 -147.943 26.2015L-157.044 7.99799C-157.598 6.88989 -158.565 6.04307 -159.736 5.6392L-170.249 2.01387C-172.303 1.30581 -174.575 2.08561 -175.76 3.90548L-197.924 37.924C-198.528 38.8511 -199.34 39.6243 -200.296 40.1819L-227.771 56.2091H-247.031V53.8416H-228.411L-201.489 38.1369C-200.852 37.7652 -200.31 37.2497 -199.908 36.6316L-177.744 2.61311C-175.965 -0.116695 -172.558 -1.2864 -169.478 -0.224304L-158.964 3.40103C-157.207 4.00683 -155.758 5.27706 -154.927 6.93921L-145.825 25.1428C-143.939 28.9158 -138.432 28.5245 -137.098 24.5225L-133.186 12.7853C-132.41 10.4589 -130.489 8.69717 -128.105 8.12489L-118.701 5.86797C-117.569 5.59616 -116.576 4.9165 -115.913 3.95892L-104.227 -12.9205C-102.171 -15.8907 -98.2128 -16.8442 -95.0296 -15.1361L-80.5507 -7.36693C-78.2728 -6.14466 -75.4356 -6.97524 -74.1765 -9.23296L-62.5306 -30.1153C-60.7167 -33.3677 -56.6987 -34.6669 -53.324 -33.092L-52.4892 -32.7025C-50.9749 -31.9958 -49.2001 -32.1397 -47.8194 -33.0811L-39.4797 -38.7672C-38.0148 -39.766 -36.2293 -40.1808 -34.4741 -39.9301L-24.1532 -38.4557C-21.2715 -38.044 -18.9328 -35.9156 -18.2521 -33.0854L-11.815 -6.32062C-10.7752 -1.99723 -4.88824 -1.3618 -2.94981 -5.36372L7.87094 -27.7034C8.03825 -28.0488 8.16295 -28.4132 8.24228 -28.7888L12.1764 -47.4102C13.6971 -54.6084 23.8145 -55.0297 25.9285 -47.9829L27.1388 -43.9487C27.6337 -42.2991 28.9852 -41.0482 30.6682 -40.6824L52.1235 -36.0182C53.9401 -35.6233 55.5294 -34.5319 56.5504 -32.9783L63.7766 -21.9819C65.6701 -19.1004 69.9101 -19.1442 71.7437 -22.0643L75.4861 -28.0245C78.8058 -33.3115 86.8416 -32.0513 88.3836 -26.002L100.317 20.8146L121.525 54.3932L119.523 55.6574L98.1155 21.7622L86.0894 -25.4172C85.0615 -29.4501 79.7043 -30.2902 77.4911 -26.7655L73.7487 -20.8054C70.9984 -16.4252 64.6384 -16.3594 61.798 -20.6817L54.5718 -31.6781C53.8912 -32.7138 52.8316 -33.4414 51.6206 -33.7047L30.1653 -38.3689C27.6408 -38.9177 25.6134 -40.7939 24.8711 -43.2684L23.6608 -47.3026Z" fill="#E9ECEF"/>
<rect x="-249" y="-17" width="369" height="76" rx="19.2442" fill="#0B19B7"/>
<path d="M12.77 2.87C12.9996 3.00037 13.2715 3.03464 13.5263 2.96532C13.7811 2.896 13.9981 2.72873 14.13 2.5C14.2392 2.30736 14.4092 2.15639 14.6134 2.07078C14.8176 1.98517 15.0444 1.96975 15.2583 2.02694C15.4723 2.08414 15.6611 2.21071 15.7954 2.38681C15.9296 2.56291 16.0016 2.77858 16 3C16 3.26522 15.8947 3.51957 15.7071 3.70711C15.5196 3.89464 15.2652 4 15 4C14.7348 4 14.4804 4.10536 14.2929 4.29289C14.1054 4.48043 14 4.73478 14 5C14 5.26522 14.1054 5.51957 14.2929 5.70711C14.4804 5.89464 14.7348 6 15 6C15.5265 5.99966 16.0437 5.86075 16.4995 5.59723C16.9554 5.33371 17.3338 4.95486 17.5969 4.49875C17.8599 4.04264 17.9983 3.52533 17.9981 2.9988C17.9979 2.47227 17.8591 1.95507 17.5957 1.49917C17.3323 1.04326 16.9535 0.664718 16.4975 0.401563C16.0414 0.138409 15.5241 -8.42941e-05 14.9976 3.84915e-08C14.4711 8.43711e-05 13.9539 0.138743 13.4979 0.402044C13.0419 0.665344 12.6633 1.04401 12.4 1.5C12.3339 1.61413 12.291 1.74022 12.2738 1.871C12.2566 2.00178 12.2655 2.13466 12.2999 2.262C12.3343 2.38934 12.3935 2.50862 12.4742 2.61297C12.5549 2.71732 12.6554 2.80467 12.77 2.87ZM17.07 10C16.8075 9.96593 16.5422 10.0373 16.3323 10.1985C16.1223 10.3597 15.9849 10.5976 15.95 10.86C15.7402 12.5552 14.9177 14.1151 13.6376 15.246C12.3575 16.3769 10.7081 17.0007 9.00002 17H3.41002L4.06002 16.35C4.24627 16.1626 4.35081 15.9092 4.35081 15.645C4.35081 15.3808 4.24627 15.1274 4.06002 14.94C3.08497 13.9611 2.4214 12.7156 2.15291 11.3603C1.88442 10.005 2.02301 8.60052 2.55122 7.32383C3.07943 6.04714 3.97364 4.95532 5.12121 4.18589C6.26878 3.41646 7.61838 3.00384 9.00002 3C9.26523 3 9.51959 2.89464 9.70712 2.70711C9.89466 2.51957 10 2.26522 10 2C10 1.73478 9.89466 1.48043 9.70712 1.29289C9.51959 1.10536 9.26523 0.999999 9.00002 0.999999C7.30925 1.00705 5.65466 1.49024 4.22581 2.39419C2.79697 3.29815 1.65165 4.58632 0.921082 6.11112C0.190513 7.63592 -0.0957586 9.33568 0.095063 11.0157C0.285885 12.6956 0.946081 14.2879 2.00002 15.61L0.290017 17.29C0.15126 17.4306 0.0572635 17.6092 0.0198894 17.8032C-0.0174847 17.9972 0.00343795 18.1979 0.0800174 18.38C0.155037 18.5626 0.282435 18.7189 0.446156 18.8293C0.609876 18.9396 0.802592 18.999 1.00002 19H9.00002C11.1915 19.0003 13.3077 18.201 14.9518 16.7521C16.5959 15.3031 17.6549 13.3041 17.93 11.13C17.9483 10.9993 17.9405 10.8662 17.9071 10.7385C17.8737 10.6107 17.8154 10.4909 17.7354 10.3858C17.6555 10.2808 17.5555 10.1926 17.4413 10.1264C17.3271 10.0602 17.2009 10.0172 17.07 10ZM15.38 7.07C15.198 6.98945 14.996 6.96508 14.8 7L14.62 7.06L14.44 7.15L14.29 7.28C14.2001 7.37215 14.1288 7.48081 14.08 7.6C14.0209 7.72473 13.9934 7.86212 14 8C13.9971 8.13337 14.0209 8.26597 14.07 8.39C14.1217 8.51002 14.1965 8.61873 14.29 8.71C14.3835 8.80268 14.4943 8.87601 14.6161 8.92577C14.7379 8.97553 14.8684 9.00076 15 9C15.2652 9 15.5196 8.89464 15.7071 8.70711C15.8947 8.51957 16 8.26522 16 8C16.0034 7.86882 15.976 7.73868 15.92 7.62C15.8126 7.37971 15.6203 7.18745 15.38 7.08V7.07Z" fill="white" fill-opacity="0.17"/>
</g>
<defs>
<clipPath id="clip0_0_1">
<rect width="430" height="932" fill="white" transform="translate(-282 -849)"/>
</clipPath>
</defs>
</svg>
