<svg width="16" height="18" viewBox="0 0 16 18" fill="none" xmlns="http://www.w3.org/2000/svg">
<path fill-rule="evenodd" clip-rule="evenodd" d="M9.16554 7.9452C9.16026 8.30085 8.97411 8.6328 8.6599 8.82872V10.5296C8.6599 10.8753 8.36549 11.1536 7.99979 11.1536C7.63409 11.1536 7.33968 10.8753 7.33968 10.5296V8.82872C7.02547 8.6328 6.83932 8.30085 6.83404 7.9452C6.83404 7.33621 7.35552 6.84328 7.99979 6.84328C8.64405 6.84328 9.16554 7.33621 9.16554 7.9452ZM14.4728 10.3C14.0649 12.9469 10.9135 15.2817 9.07709 16.4423C8.42226 16.8566 7.57732 16.8566 6.92249 16.4423C5.08607 15.2817 1.93471 12.9469 1.53337 10.3736L1.32081 4.22764C1.31157 3.94811 1.4964 3.69977 1.78025 3.61242C3.81734 3.05085 5.78182 2.29087 7.64861 1.33995C7.86513 1.20892 8.13445 1.20892 8.35097 1.33995C10.2178 2.29087 12.1875 3.05085 14.2246 3.61242C14.5032 3.69977 14.6893 3.94811 14.6788 4.22764L14.4728 10.3ZM14.6167 2.4219C12.6826 1.89153 10.8158 1.17024 9.03616 0.277974C8.40245 -0.0926581 7.59712 -0.0926581 6.96342 0.277974C5.18377 1.17024 3.31698 1.89153 1.38286 2.4219C0.537924 2.67648 -0.0244886 3.43147 0.000595486 4.27007L0.217111 10.481C0.708232 13.6058 4.16852 16.2089 6.19505 17.4806C7.28819 18.1731 8.71138 18.1731 9.80452 17.4806C11.8324 16.2089 15.2927 13.6058 15.7877 10.4123L15.999 4.27007C16.0241 3.43147 15.463 2.67648 14.6167 2.4219Z" fill="#202244"/>
</svg>
