<svg width="16" height="17" viewBox="0 0 16 17" fill="none" xmlns="http://www.w3.org/2000/svg">
<path fill-rule="evenodd" clip-rule="evenodd" d="M1.81741 3.46C3.28 1.66612 5.49741 0.5 8 0.5C12.4113 0.5 16 4.08871 16 8.5C16 12.9113 12.4113 16.5 8 16.5C3.58871 16.5 0 12.9113 0 8.5C0 7.67647 1.62476 7.59835 1.65959 8.5C1.797 12.0859 4.41224 14.8343 8 14.8343C11.5878 14.8343 14.3489 12.0887 14.3489 8.5C14.3489 4.91224 11.5887 2.13416 8 2.13416C5.90871 2.13416 4.05741 2.98 2.85741 4.5L3.71774 5.36033C4.03272 5.67531 3.80964 6.21388 3.36419 6.21388H0.2C0.0895431 6.21388 0 6.12434 0 6.01388V2.8497C0 2.40424 0.538571 2.18116 0.853554 2.49614L1.81741 3.46ZM8.00032 5.16665C8.00032 4.80405 8.00032 4.50244 8.66529 4.50244C9.33027 4.50244 9.33203 4.80125 9.33203 5.16665V9.18367C9.33203 9.83871 8.6602 10.5015 7.98466 10.5015H5.33365C5.33365 10.5015 4.66862 10.4759 4.66862 9.82377C4.66862 9.17167 5.33365 9.18367 5.33365 9.18367H8.02665L8.00032 5.16665Z" fill="black"/>
</svg>
