<svg width="42" height="14" viewBox="0 0 42 14" fill="none" xmlns="http://www.w3.org/2000/svg">
<path d="M12.0286 0.461914L8.90682 9.77248C8.90682 9.77248 8.1139 5.83404 8.03544 5.3395C6.2582 1.28455 3.63574 1.51042 3.63574 1.51042L6.72658 13.5386V13.5362H10.4843L15.6805 0.461914H12.0286Z" fill="#1565C0"/>
<path d="M15.0049 13.5386H18.4179L20.4816 0.461914H17.0258L15.0049 13.5386Z" fill="#1565C0"/>
<path d="M39.1593 0.461914H35.5679L29.9688 13.5386H33.3592L34.0582 11.671H38.333L38.6968 13.5386H41.8031L39.1593 0.461914ZM35.0044 9.17333L36.8625 4.23155L37.8349 9.17333H35.0044Z" fill="#1565C0"/>
<path d="M25.3237 4.27337C25.3237 3.55297 25.9157 3.01683 27.6133 3.01683C28.7165 3.01683 29.9802 3.81807 29.9802 3.81807L30.5342 1.07316C30.5342 1.07316 28.9198 0.460938 27.3351 0.460938C23.7462 0.460938 21.8953 2.17754 21.8953 4.35064C21.8953 8.28077 26.6254 7.74225 26.6254 9.76081C26.6254 10.1067 26.3508 10.9068 24.381 10.9068C22.4052 10.9068 21.1011 10.1828 21.1011 10.1828L20.5127 12.8172C20.5127 12.8172 21.7764 13.5376 24.2181 13.5376C26.6658 13.5376 30.061 11.7068 30.061 9.07726C30.061 5.9139 25.3237 5.68565 25.3237 4.27337Z" fill="#1565C0"/>
<path d="M8.4938 7.52972L7.34543 1.88537C7.34543 1.88537 6.82593 0.662109 5.47547 0.662109C4.12501 0.662109 0.197265 0.662109 0.197265 0.662109C0.197265 0.662109 6.92698 2.64976 8.4938 7.52972Z" fill="#FFC107"/>
</svg>
