<svg width="19" height="17" viewBox="0 0 19 17" fill="none" xmlns="http://www.w3.org/2000/svg">
<path d="M2.17689 0.279537C1.77899 -0.103469 1.14594 -0.0913942 0.762936 0.306506C0.37993 0.704407 0.392004 1.33746 0.789905 1.72046L2.17689 0.279537ZM16.3732 16.7205C16.7711 17.1035 17.4042 17.0914 17.7872 16.6935C18.1702 16.2956 18.1581 15.6625 17.7602 15.2795L16.3732 16.7205ZM11.4942 10.6434C11.8793 10.2475 11.8706 9.61442 11.4747 9.22933C11.0788 8.84424 10.4457 8.85298 10.0606 9.24887L11.4942 10.6434ZM8.69706 10.5318L8.93809 9.56129L8.93373 9.56023L8.69706 10.5318ZM7.16423 9.05636L8.13137 8.8021L8.13013 8.79747L7.16423 9.05636ZM8.44218 7.79668C8.85242 7.42694 8.88526 6.79462 8.51551 6.38437C8.14576 5.97412 7.51344 5.94129 7.1032 6.31104L8.44218 7.79668ZM7.5689 2.23161C7.02981 2.35159 6.69005 2.88588 6.81003 3.42497C6.93001 3.96407 7.46429 4.30382 8.00339 4.18384L7.5689 2.23161ZM17.0667 8.5L17.9419 8.9838C18.1039 8.69078 18.1085 8.33615 17.9541 8.03904L17.0667 8.5ZM14.7818 10.019C14.4192 10.4356 14.4628 11.0672 14.8794 11.4299C15.2959 11.7925 15.9276 11.7489 16.2902 11.3323L14.7818 10.019ZM14.0739 13.3576C14.5196 13.0314 14.6164 12.4057 14.2902 11.9601C13.964 11.5144 13.3383 11.4175 12.8927 11.7437L14.0739 13.3576ZM9.27507 13.9545V14.9545C9.28029 14.9545 9.28552 14.9545 9.29075 14.9544L9.27507 13.9545ZM1.4834 8.5L0.609824 8.01331C0.446307 8.30681 0.441106 8.66281 0.59598 8.96096L1.4834 8.5ZM5.65936 5.25489C6.10426 4.92765 6.19966 4.30172 5.87242 3.85681C5.54519 3.41191 4.91926 3.31652 4.47435 3.64375L5.65936 5.25489ZM0.789905 1.72046L16.3732 16.7205L17.7602 15.2795L2.17689 0.279537L0.789905 1.72046ZM10.0606 9.24887C9.78037 9.53698 9.3494 9.66345 8.93809 9.5613L8.45604 11.5023C9.54922 11.7738 10.712 11.4476 11.4942 10.6434L10.0606 9.24887ZM8.93373 9.56023C8.52228 9.46 8.22465 9.15692 8.13136 8.8021L6.19709 9.31062C6.48489 10.4053 7.36593 11.2368 8.4604 11.5034L8.93373 9.56023ZM8.13013 8.79747C8.03658 8.44843 8.14469 8.0648 8.44218 7.79668L7.1032 6.31104C6.26593 7.06565 5.90371 8.21612 6.19832 9.31526L8.13013 8.79747ZM8.00339 4.18384C8.42031 4.09106 8.84534 4.04545 9.27506 4.04545V2.04545C8.7032 2.04545 8.13231 2.10622 7.5689 2.23161L8.00339 4.18384ZM9.27506 4.04545C11.3695 4.04545 13.0749 5.19833 14.3139 6.47044C14.9256 7.0985 15.3975 7.72995 15.7161 8.20489C15.8749 8.44145 15.994 8.63678 16.0719 8.77017C16.1108 8.8368 16.1394 8.88777 16.1574 8.92049C16.1664 8.93684 16.1727 8.94861 16.1764 8.95547C16.1782 8.9589 16.1794 8.9611 16.1799 8.96203C16.1801 8.9625 16.1802 8.96264 16.1801 8.96247C16.18 8.96238 16.18 8.96221 16.1798 8.96196C16.1798 8.96183 16.1796 8.96159 16.1796 8.96152C16.1795 8.96125 16.1793 8.96096 17.0667 8.5C17.9541 8.03904 17.954 8.0387 17.9538 8.03835C17.9537 8.03821 17.9535 8.03783 17.9534 8.03754C17.9531 8.03696 17.9527 8.03629 17.9523 8.03555C17.9515 8.03405 17.9506 8.03222 17.9494 8.03006C17.9472 8.02575 17.9442 8.02012 17.9405 8.01323C17.9332 7.99945 17.923 7.98059 17.91 7.957C17.8841 7.90981 17.8469 7.8436 17.7987 7.76108C17.7023 7.59618 17.5613 7.36537 17.377 7.09057C17.0094 6.54278 16.4631 5.81059 15.7466 5.07501C14.3294 3.61985 12.139 2.04545 9.27506 2.04545V4.04545ZM16.1915 8.0162C15.7993 8.72575 15.3251 9.39507 14.7818 10.019L16.2902 11.3323C16.92 10.609 17.4771 9.8247 17.9419 8.9838L16.1915 8.0162ZM12.8927 11.7437C11.8496 12.5072 10.5761 12.934 9.25938 12.9547L9.29075 14.9544C11.017 14.9273 12.6931 14.3683 14.0739 13.3576L12.8927 11.7437ZM9.27507 12.9545C7.18063 12.9545 5.47521 11.8017 4.23623 10.5296C3.62453 9.9015 3.15265 9.27005 2.83399 8.79511C2.67526 8.55855 2.55616 8.36322 2.47821 8.22983C2.43928 8.1632 2.41072 8.11223 2.39274 8.07951C2.38375 8.06316 2.37741 8.05139 2.37375 8.04453C2.37192 8.0411 2.37075 8.0389 2.37026 8.03797C2.37002 8.0375 2.36994 8.03736 2.37003 8.03753C2.37008 8.03762 2.37017 8.03779 2.3703 8.03804C2.37036 8.03816 2.37049 8.03841 2.37053 8.03848C2.37067 8.03875 2.37082 8.03904 1.4834 8.5C0.59598 8.96096 0.596152 8.9613 0.596335 8.96165C0.596411 8.96179 0.596606 8.96217 0.596757 8.96246C0.59706 8.96304 0.597408 8.96371 0.597799 8.96445C0.598582 8.96595 0.599542 8.96778 0.600678 8.96994C0.60295 8.97425 0.605927 8.97987 0.609608 8.98677C0.616968 9.00055 0.627145 9.01941 0.640118 9.043C0.666058 9.09019 0.703219 9.1564 0.75144 9.23892C0.847807 9.40382 0.9888 9.63463 1.17318 9.90943C1.54071 10.4572 2.08706 11.1894 2.80348 11.925C4.22075 13.3802 6.41117 14.9545 9.27507 14.9545V12.9545ZM2.35697 8.98669C3.16577 7.53496 4.2924 6.2603 5.65936 5.25489L4.47435 3.64375C2.88048 4.81606 1.56053 6.30686 0.609824 8.01331L2.35697 8.98669Z" fill="#545454"/>
</svg>
